<svg width="50" height="50" viewBox="0 0 50 50" fill="none" xmlns="http://www.w3.org/2000/svg">
<circle cx="25" cy="25" r="25" fill="white"/>
<path d="M22.433 33C22.8572 33 23.1927 32.8444 23.4295 32.5413L32.7533 20.3517C32.9309 20.1141 33 19.9339 33 19.7455C33 19.2949 32.6448 19 32.1021 19C31.7075 19 31.4904 19.1065 31.2536 19.4178L22.3935 31.1404L17.7957 26.1434C17.549 25.8566 17.3024 25.742 16.9472 25.742C16.3848 25.742 16 26.0614 16 26.512C16 26.7004 16.0987 26.9134 16.2861 27.11L21.4068 32.5249C21.7028 32.8444 22.0087 33 22.433 33Z" fill="#27AE60"/>
</svg>
