<svg width="32" height="32" viewBox="0 0 32 32" fill="none" xmlns="http://www.w3.org/2000/svg">
<rect width="32" height="32" rx="9.48148" fill="#E8F5EA"/>
<path d="M16.0064 24.0746C16.4879 24.0746 16.9375 23.9851 17.3551 23.8061C17.777 23.6271 18.1477 23.3778 18.4673 23.0582C18.7869 22.7386 19.0362 22.3679 19.2152 21.946C19.3984 21.5284 19.4901 21.0788 19.4901 20.5973C19.4901 20.0987 19.392 19.6342 19.196 19.2038C19 18.7734 18.7102 18.3835 18.3267 18.0341C18.2585 17.9702 18.2138 17.9148 18.1925 17.8679C18.1712 17.8168 18.1605 17.7443 18.1605 17.6506L18.1669 12.0447C18.1669 11.5717 18.0753 11.1563 17.892 10.7983C17.7131 10.4403 17.4616 10.1634 17.1378 9.96733C16.8139 9.76705 16.4368 9.6669 16.0064 9.6669C15.5717 9.6669 15.1903 9.76705 14.8622 9.96733C14.5384 10.1634 14.2848 10.4403 14.1016 10.7983C13.9183 11.1563 13.8267 11.5717 13.8267 12.0447L13.8331 17.6506C13.8331 17.7443 13.8224 17.8168 13.8011 17.8679C13.7798 17.9148 13.7351 17.9702 13.6669 18.0341C13.2876 18.3835 12.9979 18.7734 12.7976 19.2038C12.6016 19.6342 12.5036 20.0987 12.5036 20.5973C12.5036 21.0788 12.593 21.5284 12.772 21.946C12.9553 22.3679 13.2067 22.7386 13.5263 23.0582C13.8459 23.3778 14.2166 23.6271 14.6385 23.8061C15.0646 23.9851 15.5206 24.0746 16.0064 24.0746ZM16.0064 22.9815C15.5632 22.9815 15.1605 22.8729 14.7983 22.6555C14.4361 22.4382 14.1463 22.1463 13.929 21.7798C13.7159 21.4176 13.6094 21.0192 13.6094 20.5845C13.6094 20.1754 13.701 19.8004 13.8842 19.4595C14.0717 19.1186 14.3317 18.8374 14.6641 18.6158C14.7621 18.5476 14.8324 18.4794 14.875 18.4112C14.9176 18.3388 14.9389 18.2365 14.9389 18.1044V12.0895C14.9389 11.6932 15.0369 11.3757 15.233 11.1371C15.429 10.8984 15.6868 10.7791 16.0064 10.7791C16.3175 10.7791 16.571 10.8984 16.767 11.1371C16.9631 11.3757 17.0611 11.6932 17.0611 12.0895V18.1044C17.0611 18.2365 17.0803 18.3388 17.1186 18.4112C17.1612 18.4794 17.2315 18.5476 17.3295 18.6158C17.6662 18.8374 17.9261 19.1186 18.1094 19.4595C18.2926 19.8004 18.3842 20.1754 18.3842 20.5845C18.3842 21.0192 18.2756 21.4176 18.0582 21.7798C17.8452 22.1463 17.5575 22.4382 17.1953 22.6555C16.8374 22.8729 16.4411 22.9815 16.0064 22.9815ZM16 22.1122C16.2813 22.1122 16.5369 22.0419 16.767 21.9013C16.9972 21.7649 17.1804 21.5795 17.3168 21.3452C17.4574 21.1151 17.5277 20.8594 17.5277 20.5781C17.5277 20.2798 17.451 20.0156 17.2976 19.7855C17.1484 19.5511 16.9524 19.3658 16.7095 19.2294C16.6072 19.174 16.5348 19.1165 16.4922 19.0568C16.4538 18.9972 16.4347 18.8906 16.4347 18.7372V15.4453C16.4347 15.2876 16.392 15.1641 16.3068 15.0746C16.2216 14.9808 16.1193 14.9339 16 14.9339C15.8764 14.9339 15.772 14.9808 15.6868 15.0746C15.6058 15.1641 15.5653 15.2876 15.5653 15.4453V18.7372C15.5653 18.8906 15.544 18.9972 15.5014 19.0568C15.4631 19.1165 15.3928 19.174 15.2905 19.2294C15.0476 19.3658 14.8494 19.5511 14.696 19.7855C14.5426 20.0156 14.4659 20.2798 14.4659 20.5781C14.4659 20.8594 14.5341 21.1151 14.6705 21.3452C14.8111 21.5795 14.9964 21.7649 15.2266 21.9013C15.4609 22.0419 15.7188 22.1122 16 22.1122ZM19.3814 12.1598H20.7876C20.907 12.1598 21.0028 12.1214 21.0753 12.0447C21.1477 11.968 21.1839 11.8764 21.1839 11.7699C21.1839 11.6676 21.1477 11.5781 21.0753 11.5014C21.0028 11.4205 20.907 11.38 20.7876 11.38H19.3814C19.2663 11.38 19.1705 11.4205 19.0937 11.5014C19.0213 11.5781 18.9851 11.6676 18.9851 11.7699C18.9851 11.8764 19.0213 11.968 19.0937 12.0447C19.1705 12.1214 19.2663 12.1598 19.3814 12.1598ZM19.3814 13.9368H20.7876C20.907 13.9368 21.0028 13.8984 21.0753 13.8217C21.1477 13.7408 21.1839 13.6491 21.1839 13.5469C21.1839 13.4361 21.1477 13.3445 21.0753 13.272C21.0028 13.1953 20.907 13.157 20.7876 13.157H19.3814C19.2663 13.157 19.1705 13.1953 19.0937 13.272C19.0213 13.3445 18.9851 13.4361 18.9851 13.5469C18.9851 13.6491 19.0213 13.7408 19.0937 13.8217C19.1705 13.8984 19.2663 13.9368 19.3814 13.9368ZM19.3814 15.7138H20.7876C20.907 15.7138 21.0028 15.6754 21.0753 15.5987C21.1477 15.522 21.1839 15.4325 21.1839 15.3303C21.1839 15.2195 21.1477 15.1257 21.0753 15.049C21.0028 14.9723 20.907 14.9339 20.7876 14.9339H19.3814C19.2663 14.9339 19.1705 14.9723 19.0937 15.049C19.0213 15.1257 18.9851 15.2195 18.9851 15.3303C18.9851 15.4325 19.0213 15.522 19.0937 15.5987C19.1705 15.6754 19.2663 15.7138 19.3814 15.7138ZM19.3814 17.4972H20.7876C20.907 17.4972 21.0028 17.4588 21.0753 17.3821C21.1477 17.3054 21.1839 17.2138 21.1839 17.1072C21.1839 17.0007 21.1477 16.9091 21.0753 16.8324C21.0028 16.7557 20.907 16.7173 20.7876 16.7173H19.3814C19.2663 16.7173 19.1705 16.7557 19.0937 16.8324C19.0213 16.9091 18.9851 17.0007 18.9851 17.1072C18.9851 17.2138 19.0213 17.3054 19.0937 17.3821C19.1705 17.4588 19.2663 17.4972 19.3814 17.4972Z" fill="#417D4B"/>
</svg>
