<svg width="16" height="20" viewBox="0 0 16 20" fill="none" xmlns="http://www.w3.org/2000/svg">
<path d="M8 20C9.60077 20 11.0014 19.7202 12.202 19.1605C13.4026 18.6074 14.3338 17.8305 14.9957 16.8296C15.6652 15.8222 16 14.6502 16 13.3136C16 12.6551 15.9153 12.0066 15.746 11.3679C15.5767 10.7292 15.3689 10.1267 15.1227 9.56049C14.8764 8.99424 14.6417 8.49383 14.4185 8.05926C13.8028 6.86749 13.0486 5.6428 12.1558 4.38519C11.2708 3.12757 10.405 1.94239 9.55844 0.82963C9.35835 0.566255 9.13131 0.36214 8.87734 0.217284C8.63107 0.072428 8.33862 0 8 0C7.66138 0 7.36893 0.072428 7.12265 0.217284C6.87638 0.36214 6.64935 0.566255 6.44156 0.82963C5.60269 1.94239 4.73689 3.12757 3.84416 4.38519C2.95142 5.6428 2.19721 6.86749 1.58153 8.05926C1.35835 8.49383 1.12362 8.99424 0.877345 9.56049C0.631073 10.1267 0.42328 10.7292 0.253968 11.3679C0.0846561 12.0066 0 12.6551 0 13.3136C0 14.6502 0.330928 15.8222 0.992785 16.8296C1.66234 17.8305 2.5974 18.6074 3.79798 19.1605C4.99856 19.7202 6.39923 20 8 20ZM8 18.3802C6.77633 18.3802 5.70659 18.1695 4.79076 17.7481C3.87494 17.3267 3.16306 16.7374 2.65512 15.9802C2.14719 15.2165 1.89322 14.3276 1.89322 13.3136C1.89322 12.5037 2.03944 11.7169 2.33189 10.9531C2.63203 10.1827 2.94372 9.47819 3.26696 8.83951C3.91342 7.54239 4.64069 6.34403 5.44877 5.24444C6.26455 4.13827 7.07648 3.06502 7.88456 2.02469C7.91534 1.96543 7.95382 1.93909 8 1.94568C8.05387 1.94568 8.0962 1.97202 8.12698 2.02469C8.92737 3.06502 9.73545 4.13498 10.5512 5.23457C11.367 6.33416 12.0904 7.53251 12.7215 8.82963C13.0447 9.4749 13.3564 10.1827 13.6566 10.9531C13.9644 11.7169 14.1183 12.5037 14.1183 13.3136C14.1183 14.3276 13.8605 15.2165 13.3449 15.9802C12.8369 16.7374 12.1251 17.3267 11.2092 17.7481C10.2934 18.1695 9.22367 18.3802 8 18.3802Z" fill="#188BA0"/>
</svg>
