<svg width="21" height="18" viewBox="0 0 21 18" fill="none" xmlns="http://www.w3.org/2000/svg">
<path d="M1.22378 1.81392L1.22378 1.81392L1.22436 1.81443C2.61815 3.02825 3.41839 4.78193 3.41839 6.62746V15.3963C3.41839 16.6069 4.40098 17.5895 5.61156 17.5895H13.8446C15.0552 17.5895 16.0378 16.6069 16.0378 15.3963V6.14567H17.2134V11.8656C17.2134 12.7217 17.9108 13.4151 18.7629 13.4151C19.6146 13.4151 20.3162 12.7258 20.3162 11.8695V5.34394C20.3162 4.07554 19.2835 3.04284 18.0151 3.04284H16.0378V1.38544C16.0378 1.15003 15.8454 0.957596 15.6099 0.957596H1.38711C1.20732 0.957596 1.0492 1.06896 0.985218 1.23532C0.920791 1.40282 0.972421 1.59093 1.10457 1.70624L1.22378 1.81392ZM16.0378 3.90239H18.0151C18.8127 3.90239 19.4605 4.55022 19.4605 5.34779V11.8695C19.4605 12.2508 19.148 12.5633 18.7667 12.5633C18.3817 12.5633 18.0729 12.2509 18.0729 11.8695V5.71782C18.0729 5.48241 17.8805 5.28997 17.6451 5.28997H16.0378V3.90239ZM15.1821 1.81714V3.47454V5.72167V5.82959H14.0065C13.7711 5.82959 13.5787 6.02203 13.5787 6.25744C13.5787 6.49285 13.7711 6.68529 14.0065 6.68529H15.1821V8.32341H14.0065C13.7711 8.32341 13.5787 8.51584 13.5787 8.75125C13.5787 8.98667 13.7711 9.1791 14.0065 9.1791H15.1821V10.8172H14.0065C13.7711 10.8172 13.5787 11.0097 13.5787 11.2451C13.5787 11.4805 13.7711 11.6729 14.0065 11.6729H15.1821V13.311H14.0065C13.7711 13.311 13.5787 13.5035 13.5787 13.7389C13.5787 13.9743 13.7711 14.1667 14.0065 14.1667H15.1821V15.3963C15.1821 16.1323 14.5843 16.7338 13.8446 16.7338H5.61156C4.87558 16.7338 4.27408 16.136 4.27408 15.3963V6.62746C4.27408 4.84138 3.61572 3.13382 2.4423 1.81714H15.1821Z" fill="#4F4F4F" stroke="#4F4F4F" stroke-width="0.0848086"/>
</svg>
