<svg width="32" height="32" viewBox="0 0 32 32" fill="none" xmlns="http://www.w3.org/2000/svg">
<rect width="32" height="32" rx="9.48148" fill="#FFE7D8"/>
<g clip-path="url(#clip0_234_4945)">
<path d="M23.6191 12.2813L16.2476 9.11912C16.0893 9.05128 15.9104 9.05128 15.7523 9.11912L8.38075 12.2813C8.14956 12.3804 8.00003 12.6078 8.00024 12.8593C8.00065 13.1108 8.15103 13.3379 8.38221 13.4365L15.7538 16.5778C15.8325 16.6113 15.9163 16.628 16 16.628C16.0838 16.628 16.1678 16.6113 16.2461 16.5778L23.6176 13.4365C23.8491 13.338 23.9994 13.1108 23.9996 12.8593C23.9999 12.608 23.8503 12.3804 23.6191 12.2813ZM16 15.3171L10.2266 12.8568L16 10.38L21.7735 12.8568L16 15.3171Z" fill="#DF6512"/>
<path d="M23.949 18.8934C23.8122 18.5745 23.4422 18.4268 23.1241 18.5638L16.0001 21.6198L8.87605 18.5638C8.55667 18.4264 8.18789 18.5747 8.05114 18.8934C7.91417 19.2122 8.06183 19.5816 8.38077 19.7183L15.7523 22.8808C15.8315 22.9147 15.9159 22.9316 16.0001 22.9316C16.0842 22.9316 16.1687 22.9147 16.2478 22.8808L23.6194 19.7183C23.9381 19.5815 24.0857 19.2121 23.949 18.8934Z" fill="#DF6512"/>
<path d="M23.9496 15.7538C23.8133 15.4348 23.4443 15.2863 23.1254 15.4223L16.0001 18.4586L8.87504 15.4223C8.55567 15.2861 8.1867 15.4348 8.05076 15.7538C7.91463 16.0731 8.0631 16.4421 8.38226 16.5781L15.7538 19.7193C15.8326 19.7528 15.9163 19.7696 16.0001 19.7696C16.0839 19.7696 16.1678 19.7528 16.2464 19.7193L23.6179 16.578C23.9371 16.4421 24.0855 16.0731 23.9496 15.7538Z" fill="#DF6512"/>
</g>
<defs>
<clipPath id="clip0_234_4945">
<rect width="16" height="16" fill="white" transform="translate(8 8)"/>
</clipPath>
</defs>
</svg>
