<svg width="13" height="21" viewBox="0 0 13 21" fill="none" xmlns="http://www.w3.org/2000/svg">
<path d="M5.05762 20.2275C5.71973 20.2275 6.33789 20.1045 6.91211 19.8584C7.49219 19.6123 8.00195 19.2695 8.44141 18.8301C8.88086 18.3906 9.22363 17.8809 9.46973 17.3008C9.72168 16.7266 9.84766 16.1084 9.84766 15.4463C9.84766 14.7607 9.71289 14.1221 9.44336 13.5303C9.17383 12.9385 8.77539 12.4023 8.24805 11.9219C8.1543 11.834 8.09277 11.7578 8.06348 11.6934C8.03418 11.623 8.01953 11.5234 8.01953 11.3945L8.02832 3.68652C8.02832 3.03613 7.90234 2.46484 7.65039 1.97266C7.4043 1.48047 7.05859 1.09961 6.61328 0.830078C6.16797 0.554688 5.64941 0.416992 5.05762 0.416992C4.45996 0.416992 3.93555 0.554688 3.48438 0.830078C3.03906 1.09961 2.69043 1.48047 2.43848 1.97266C2.18652 2.46484 2.06055 3.03613 2.06055 3.68652L2.06934 11.3945C2.06934 11.5234 2.05469 11.623 2.02539 11.6934C1.99609 11.7578 1.93457 11.834 1.84082 11.9219C1.31934 12.4023 0.920898 12.9385 0.645508 13.5303C0.375977 14.1221 0.241211 14.7607 0.241211 15.4463C0.241211 16.1084 0.364258 16.7266 0.610352 17.3008C0.862305 17.8809 1.20801 18.3906 1.64746 18.8301C2.08691 19.2695 2.59668 19.6123 3.17676 19.8584C3.7627 20.1045 4.38965 20.2275 5.05762 20.2275ZM5.05762 18.7246C4.44824 18.7246 3.89453 18.5752 3.39648 18.2764C2.89844 17.9775 2.5 17.5762 2.20117 17.0723C1.9082 16.5742 1.76172 16.0264 1.76172 15.4287C1.76172 14.8662 1.8877 14.3506 2.13965 13.8818C2.39746 13.4131 2.75488 13.0264 3.21191 12.7217C3.34668 12.6279 3.44336 12.5342 3.50195 12.4404C3.56055 12.3408 3.58984 12.2002 3.58984 12.0186V3.74805C3.58984 3.20312 3.72461 2.7666 3.99414 2.43848C4.26367 2.11035 4.61816 1.94629 5.05762 1.94629C5.48535 1.94629 5.83398 2.11035 6.10352 2.43848C6.37305 2.7666 6.50781 3.20312 6.50781 3.74805V12.0186C6.50781 12.2002 6.53418 12.3408 6.58691 12.4404C6.64551 12.5342 6.74219 12.6279 6.87695 12.7217C7.33984 13.0264 7.69727 13.4131 7.94922 13.8818C8.20117 14.3506 8.32715 14.8662 8.32715 15.4287C8.32715 16.0264 8.17773 16.5742 7.87891 17.0723C7.58594 17.5762 7.19043 17.9775 6.69238 18.2764C6.2002 18.5752 5.65527 18.7246 5.05762 18.7246ZM5.04883 17.5293C5.43555 17.5293 5.78711 17.4326 6.10352 17.2393C6.41992 17.0518 6.67188 16.7969 6.85938 16.4746C7.05273 16.1582 7.14941 15.8066 7.14941 15.4199C7.14941 15.0098 7.04395 14.6465 6.83301 14.3301C6.62793 14.0078 6.3584 13.7529 6.02441 13.5654C5.88379 13.4893 5.78418 13.4102 5.72559 13.3281C5.67285 13.2461 5.64648 13.0996 5.64648 12.8887V8.3623C5.64648 8.14551 5.58789 7.97559 5.4707 7.85254C5.35352 7.72363 5.21289 7.65918 5.04883 7.65918C4.87891 7.65918 4.73535 7.72363 4.61816 7.85254C4.50684 7.97559 4.45117 8.14551 4.45117 8.3623V12.8887C4.45117 13.0996 4.42188 13.2461 4.36328 13.3281C4.31055 13.4102 4.21387 13.4893 4.07324 13.5654C3.73926 13.7529 3.4668 14.0078 3.25586 14.3301C3.04492 14.6465 2.93945 15.0098 2.93945 15.4199C2.93945 15.8066 3.0332 16.1582 3.2207 16.4746C3.41406 16.7969 3.66895 17.0518 3.98535 17.2393C4.30762 17.4326 4.66211 17.5293 5.04883 17.5293ZM9.69824 3.84473H11.6318C11.7959 3.84473 11.9277 3.79199 12.0273 3.68652C12.127 3.58105 12.1768 3.45508 12.1768 3.30859C12.1768 3.16797 12.127 3.04492 12.0273 2.93945C11.9277 2.82812 11.7959 2.77246 11.6318 2.77246H9.69824C9.54004 2.77246 9.4082 2.82812 9.30273 2.93945C9.20312 3.04492 9.15332 3.16797 9.15332 3.30859C9.15332 3.45508 9.20312 3.58105 9.30273 3.68652C9.4082 3.79199 9.54004 3.84473 9.69824 3.84473ZM9.69824 6.28809H11.6318C11.7959 6.28809 11.9277 6.23535 12.0273 6.12988C12.127 6.01855 12.1768 5.89258 12.1768 5.75195C12.1768 5.59961 12.127 5.47363 12.0273 5.37402C11.9277 5.26855 11.7959 5.21582 11.6318 5.21582H9.69824C9.54004 5.21582 9.4082 5.26855 9.30273 5.37402C9.20312 5.47363 9.15332 5.59961 9.15332 5.75195C9.15332 5.89258 9.20312 6.01855 9.30273 6.12988C9.4082 6.23535 9.54004 6.28809 9.69824 6.28809ZM9.69824 8.73145H11.6318C11.7959 8.73145 11.9277 8.67871 12.0273 8.57324C12.127 8.46777 12.1768 8.34473 12.1768 8.2041C12.1768 8.05176 12.127 7.92285 12.0273 7.81738C11.9277 7.71191 11.7959 7.65918 11.6318 7.65918H9.69824C9.54004 7.65918 9.4082 7.71191 9.30273 7.81738C9.20312 7.92285 9.15332 8.05176 9.15332 8.2041C9.15332 8.34473 9.20312 8.46777 9.30273 8.57324C9.4082 8.67871 9.54004 8.73145 9.69824 8.73145ZM9.69824 11.1836H11.6318C11.7959 11.1836 11.9277 11.1309 12.0273 11.0254C12.127 10.9199 12.1768 10.7939 12.1768 10.6475C12.1768 10.501 12.127 10.375 12.0273 10.2695C11.9277 10.1641 11.7959 10.1113 11.6318 10.1113H9.69824C9.54004 10.1113 9.4082 10.1641 9.30273 10.2695C9.20312 10.375 9.15332 10.501 9.15332 10.6475C9.15332 10.7939 9.20312 10.9199 9.30273 11.0254C9.4082 11.1309 9.54004 11.1836 9.69824 11.1836Z" fill="#417D4B"/>
</svg>
