<svg width="22" height="22" viewBox="0 0 22 22" fill="none" xmlns="http://www.w3.org/2000/svg">
<g clip-path="url(#clip0_234_1221)">
<path d="M21.4762 5.88685L11.3403 1.53879C11.1226 1.4455 10.8767 1.4455 10.6593 1.53879L0.523433 5.88685C0.20555 6.02306 -5.63116e-05 6.33579 0.00024447 6.6816C0.000803065 7.02741 0.207569 7.33958 0.525452 7.47519L10.6613 11.7944C10.7696 11.8405 10.8848 11.8635 11 11.8635C11.1152 11.8635 11.2306 11.8405 11.3383 11.7944L21.4742 7.47515C21.7924 7.3398 21.9991 7.02737 21.9994 6.68156C21.9997 6.33605 21.7941 6.02302 21.4762 5.88685ZM11 10.061L3.06143 6.67812L11 3.27254L18.9385 6.67812L11 10.061Z" fill="#DF6512"/>
<path d="M21.9299 14.9784C21.7418 14.5399 21.233 14.3369 20.7956 14.5252L11.0001 18.7272L1.20456 14.5252C0.765423 14.3363 0.258348 14.5402 0.0703166 14.9784C-0.118016 15.4167 0.0850119 15.9246 0.523552 16.1127L10.6594 20.461C10.7683 20.5077 10.8843 20.531 11.0001 20.531C11.1158 20.531 11.2319 20.5077 11.3407 20.461L21.4766 16.1127C21.9149 15.9246 22.1179 15.4167 21.9299 14.9784Z" fill="#DF6512"/>
<path d="M21.9307 10.6614C21.7432 10.2229 21.2358 10.0187 20.7973 10.2056L11 14.3806L1.20309 10.2056C0.76395 10.0185 0.256617 10.2229 0.0697022 10.6614C-0.11747 11.1006 0.0866749 11.608 0.525516 11.7948L10.6614 16.1141C10.7697 16.1601 10.8848 16.1832 11 16.1832C11.1152 16.1832 11.2307 16.1601 11.3387 16.1141L21.4745 11.7948C21.9134 11.6079 22.1175 11.1005 21.9307 10.6614Z" fill="#DF6512"/>
</g>
<defs>
<clipPath id="clip0_234_1221">
<rect width="22" height="22" fill="white"/>
</clipPath>
</defs>
</svg>
