<svg width="17" height="17" viewBox="0 0 17 17" fill="none" xmlns="http://www.w3.org/2000/svg">
<path d="M8.36719 16.3281C9.45573 16.3281 10.4792 16.1198 11.4375 15.7031C12.401 15.2865 13.25 14.7109 13.9844 13.9766C14.7188 13.2422 15.2943 12.3958 15.7109 11.4375C16.1276 10.474 16.3359 9.44792 16.3359 8.35938C16.3359 7.27083 16.1276 6.2474 15.7109 5.28906C15.2943 4.32552 14.7188 3.47656 13.9844 2.74219C13.25 2.00781 12.401 1.43229 11.4375 1.01562C10.474 0.598958 9.44792 0.390625 8.35938 0.390625C7.27083 0.390625 6.24479 0.598958 5.28125 1.01562C4.32292 1.43229 3.47656 2.00781 2.74219 2.74219C2.01302 3.47656 1.4401 4.32552 1.02344 5.28906C0.606771 6.2474 0.398438 7.27083 0.398438 8.35938C0.398438 9.44792 0.606771 10.474 1.02344 11.4375C1.4401 12.3958 2.01562 13.2422 2.75 13.9766C3.48438 14.7109 4.33073 15.2865 5.28906 15.7031C6.2526 16.1198 7.27865 16.3281 8.36719 16.3281ZM8.36719 15C7.44531 15 6.58333 14.8281 5.78125 14.4844C4.97917 14.1406 4.27344 13.6667 3.66406 13.0625C3.0599 12.4531 2.58594 11.7474 2.24219 10.9453C1.90365 10.1432 1.73438 9.28125 1.73438 8.35938C1.73438 7.4375 1.90365 6.57552 2.24219 5.77344C2.58594 4.97135 3.0599 4.26562 3.66406 3.65625C4.26823 3.04688 4.97135 2.57292 5.77344 2.23438C6.57552 1.89062 7.4375 1.71875 8.35938 1.71875C9.28125 1.71875 10.1432 1.89062 10.9453 2.23438C11.7474 2.57292 12.4531 3.04688 13.0625 3.65625C13.6719 4.26562 14.1484 4.97135 14.4922 5.77344C14.8359 6.57552 15.0078 7.4375 15.0078 8.35938C15.0078 9.28125 14.8359 10.1432 14.4922 10.9453C14.1536 11.7474 13.6797 12.4531 13.0703 13.0625C12.4661 13.6667 11.7604 14.1406 10.9531 14.4844C10.151 14.8281 9.28906 15 8.36719 15ZM5.85938 11.7422L10.9844 6.63281L10.0625 5.71094L4.94531 10.8125L4.5 11.8516C4.46354 11.9453 4.47917 12.026 4.54688 12.0938C4.61979 12.1615 4.69792 12.1797 4.78125 12.1484L5.85938 11.7422ZM11.4531 6.17188L12.0156 5.60156C12.1406 5.47135 12.2083 5.33854 12.2188 5.20312C12.2292 5.0625 12.1745 4.9349 12.0547 4.82031L11.875 4.64062C11.7604 4.52083 11.6328 4.46615 11.4922 4.47656C11.3568 4.48698 11.2266 4.55469 11.1016 4.67969L10.5312 5.24219L11.4531 6.17188Z" fill="black"/>
</svg>
