<svg width="32" height="32" viewBox="0 0 32 32" fill="none" xmlns="http://www.w3.org/2000/svg">
<rect width="32" height="32" rx="9.48148" fill="#E8F3F5"/>
<path d="M14.3409 20.2603L14.3409 20.2603L14.3426 20.262C14.9586 20.878 15.8417 21.274 16.8129 21.274C17.1109 21.274 17.3483 21.0367 17.3483 20.7387C17.3483 20.4408 17.1109 20.2034 16.8129 20.2034C16.1379 20.2034 15.5295 19.9314 15.0954 19.4973C14.6613 19.0632 14.3893 18.4548 14.3893 17.7797C14.3893 17.4818 14.1519 17.2444 13.8539 17.2444C13.556 17.2444 13.3186 17.4818 13.3186 17.7797C13.3186 18.753 13.716 19.6227 14.3409 20.2603Z" fill="#188BA0" stroke="#188BA0" stroke-width="0.474074"/>
<path d="M16.5185 23.4074C17.8228 23.4074 18.9641 23.1918 19.9424 22.7607C20.9206 22.3346 21.6794 21.7361 22.2187 20.965C22.7643 20.189 23.037 19.2861 23.037 18.2564C23.037 17.7491 22.9681 17.2495 22.8301 16.7575C22.6921 16.2655 22.5228 15.8013 22.3222 15.3651C22.1215 14.9289 21.9302 14.5434 21.7484 14.2086C21.2467 13.2905 20.6322 12.347 19.9048 11.3782C19.1836 10.4094 18.4782 9.49636 17.7884 8.63912C17.6253 8.43623 17.4403 8.27898 17.2334 8.16739C17.0327 8.0558 16.7944 8 16.5185 8C16.2426 8 16.0043 8.0558 15.8036 8.16739C15.603 8.27898 15.418 8.43623 15.2487 8.63912C14.5652 9.49636 13.8597 10.4094 13.1323 11.3782C12.4049 12.347 11.7903 13.2905 11.2887 14.2086C11.1068 14.5434 10.9155 14.9289 10.7149 15.3651C10.5142 15.8013 10.3449 16.2655 10.2069 16.7575C10.069 17.2495 10 17.7491 10 18.2564C10 19.2861 10.2696 20.189 10.8089 20.965C11.3545 21.7361 12.1164 22.3346 13.0947 22.7607C14.0729 23.1918 15.2142 23.4074 16.5185 23.4074ZM16.5185 22.1596C15.5215 22.1596 14.6498 21.9973 13.9036 21.6726C13.1574 21.348 12.5773 20.894 12.1634 20.3107C11.7496 19.7223 11.5426 19.0375 11.5426 18.2564C11.5426 17.6325 11.6618 17.0263 11.9001 16.4379C12.1446 15.8445 12.3986 15.3017 12.662 14.8097C13.1887 13.8104 13.7813 12.8873 14.4397 12.0402C15.1044 11.188 15.766 10.3612 16.4245 9.55976C16.4495 9.51411 16.4809 9.49382 16.5185 9.49889C16.5624 9.49889 16.5969 9.51918 16.622 9.55976C17.2742 10.3612 17.9326 11.1855 18.5973 12.0326C19.262 12.8796 19.8515 13.8028 20.3657 14.8021C20.629 15.2992 20.883 15.8445 21.1276 16.4379C21.3784 17.0263 21.5038 17.6325 21.5038 18.2564C21.5038 19.0375 21.2937 19.7223 20.8736 20.3107C20.4597 20.894 19.8797 21.348 19.1335 21.6726C18.3872 21.9973 17.5156 22.1596 16.5185 22.1596Z" fill="#188BA0"/>
</svg>
