<svg width="244" height="280" viewBox="0 0 244 280" fill="none" xmlns="http://www.w3.org/2000/svg">
<path fill-rule="evenodd" clip-rule="evenodd" d="M211.219 23.867C211.057 22.3546 210.853 20.8537 210.606 19.3672C210.005 15.7362 208.776 11.7979 205.711 9.83817C205.594 9.76366 205.48 9.69306 205.36 9.62547C205.279 9.5792 205.194 9.53474 205.113 9.49298C201.414 7.58225 196.823 9.11053 193.139 11.1225C184.061 16.0775 176.693 23.6892 170.415 31.9089C167.206 36.114 164.243 40.548 161.662 45.1695C161.518 45.4276 161.374 45.6857 161.232 45.9446C154.603 58.0561 150.595 71.4301 151.499 85.3246C151.514 85.5643 151.532 85.805 151.55 86.0456C151.668 87.5814 151.848 89.1226 152.088 90.6689C152.38 92.5373 152.885 94.3318 153.651 96.0637C156.145 101.703 161.966 105.65 168.318 107.552C168.516 107.612 168.715 107.67 168.916 107.724C170.013 108.03 171.125 108.274 172.236 108.456C172.501 108.499 172.768 108.54 173.036 108.575C175.653 108.933 178.246 108.939 180.629 108.571C184.581 107.959 188.49 106.225 191.414 103.473C194.716 100.36 197.318 96.286 199.422 91.886C199.557 91.6036 199.692 91.3203 199.822 91.0364C200.011 90.6275 200.194 90.2168 200.374 89.804C200.51 89.4939 200.642 89.1818 200.774 88.8685C202.634 84.4248 204.056 79.8033 205.233 75.6108C208.848 62.7269 211.664 48.385 211.736 34.468C211.739 34.2342 211.739 33.9993 211.739 33.7655C211.733 30.4302 211.571 27.1222 211.219 23.867Z" fill="#415934"/>
<path fill-rule="evenodd" clip-rule="evenodd" d="M176.155 204.644C176.155 204.644 176.515 200.399 158.269 199.532C140.027 198.664 134.516 202.594 135.483 204.785C136.448 206.976 155.766 213.741 155.766 213.741L175.524 206.575L176.155 204.644Z" fill="#FF9E47"/>
<path fill-rule="evenodd" clip-rule="evenodd" d="M168.363 203.274C163.784 202.112 159.021 201.93 154.318 201.971C149.889 202.009 145.357 201.884 141.105 203.324C140.015 203.693 138.834 204.161 138.118 205.104C137.608 205.779 137.241 206.874 137.463 207.73C137.499 207.864 137.554 207.984 137.623 208.092C137.548 208.22 137.529 208.383 137.617 208.553C138.506 210.323 140.925 210.635 142.62 211.117C143.062 211.243 143.476 211.407 143.903 211.576C144.561 211.836 145.252 211.975 145.937 212.144C147.277 212.476 148.488 213.178 149.835 213.496C151.265 213.834 152.776 213.774 154.231 213.764C155.733 213.753 157.233 213.675 158.723 213.492C161.316 213.174 163.952 212.573 166.437 211.795C167.591 211.435 168.73 211.003 169.79 210.425C170.782 209.883 171.945 209.169 172.405 208.087C173.471 205.579 170.343 203.777 168.363 203.274Z" fill="#401E18"/>
<path fill-rule="evenodd" clip-rule="evenodd" d="M157.23 133.826C157.206 132.472 157.11 131.121 156.944 129.777C155.568 118.462 149.48 107.576 142.328 99.0188C138.623 94.5847 134.395 90.5989 129.81 87.086C125.329 83.6512 119.365 78.698 113.511 78.4565C112.805 78.4273 112.081 78.4796 111.411 78.6809C111.152 78.7581 110.906 78.8575 110.668 78.9822C110.554 79.0411 110.443 79.1069 110.338 79.1784C109.004 80.0704 108.436 81.7348 108.156 83.3129C106.477 92.8383 110.44 104.978 113.971 113.761C116.702 120.55 120.272 127.143 124.653 133.015C128.536 138.219 132.391 143.855 138.572 146.518C143.596 148.682 150.075 148.196 153.846 144.328C154.03 144.139 154.207 143.942 154.378 143.737C154.39 143.724 154.399 143.71 154.411 143.696C156.641 140.991 157.293 137.241 157.23 133.826Z" fill="#415934"/>
<path fill-rule="evenodd" clip-rule="evenodd" d="M205.711 9.83817C202.625 14.6444 198.926 19.0436 196.113 24.041C192.511 30.4458 189.644 37.2301 187.084 44.1093C187.024 44.2764 186.96 44.4428 186.9 44.6098C186.774 44.9472 186.648 45.2846 186.525 45.6229C184.181 52.0061 181.993 58.4524 179.74 64.8678C177.339 71.6929 175.01 78.5505 173.129 85.5391C172.849 86.5675 172.585 87.5977 172.335 88.6317C172.275 88.8781 172.215 89.1256 172.158 89.3729C170.722 95.4172 169.697 101.552 168.916 107.724C167.954 115.287 167.353 122.907 166.8 130.484C165.674 145.866 165.1 161.281 164.297 176.682C163.699 188.09 162.356 199.504 162.338 210.934C162.338 211.37 161.662 211.369 161.662 210.934C161.665 209.726 161.689 208.519 161.728 207.313C162.122 195.13 163.318 182.974 163.916 170.798C164.676 155.388 165.301 139.967 166.584 124.589C167.059 118.9 167.621 113.218 168.318 107.552C168.552 105.649 168.799 103.748 169.063 101.849C169.673 97.4719 170.536 93.1403 171.584 88.8522C171.644 88.5999 171.707 88.3487 171.771 88.0964C172.417 85.5073 173.129 82.9335 173.895 80.3753C175.971 73.4324 178.405 66.6034 180.821 59.7734C182.426 55.2468 183.968 50.6956 185.605 46.1805C185.731 45.8374 185.858 45.4943 185.981 45.1521C186.726 43.1188 187.495 41.0939 188.298 39.0829C190.918 32.5302 193.872 25.9953 197.706 20.0534C200.032 16.4524 202.769 13.0882 205.113 9.49298C205.194 9.53474 205.278 9.5792 205.36 9.62547C205.48 9.69307 205.594 9.76367 205.711 9.83817Z" fill="#401E18"/>
<path fill-rule="evenodd" clip-rule="evenodd" d="M164.514 66.878C163.904 72.5819 161.668 77.9187 156.854 81.9721C155.334 83.2535 153.296 84.4972 151.019 85.5478C150.814 85.6434 150.604 85.7371 150.394 85.829C145.21 88.0973 138.939 89.3275 134.612 87.7764C124.437 84.128 117.021 75.1902 114.055 65.5095C111.42 56.9079 109.148 47.9461 107.937 38.8972C108.018 38.789 108.099 38.6809 108.18 38.5736C110.434 35.6249 113.027 32.9526 115.702 30.3848C117.207 28.9401 118.74 27.5262 120.266 26.1055C120.299 26.0773 120.272 26.0223 120.233 26.0232C119.335 26.034 118.481 26.3606 117.661 26.6967C116.786 27.0546 115.9 27.3541 115.02 27.6912C113.157 28.4026 111.36 29.2648 109.572 30.1394C108.775 30.5278 107.985 30.9184 107.186 31.3008C106.969 27.8285 106.939 24.3552 107.129 20.8952C107.492 14.3281 109.028 5.47172 114.794 1.85515C114.983 1.73618 115.179 1.62232 115.377 1.51507C116.777 0.76009 118.409 0.299232 120.311 0.224725C130.33 -0.164631 141.337 9.57318 146.202 17.1359C152.704 27.2429 158.873 38.0073 162.413 49.5552C164.108 55.0852 165.127 61.1653 164.514 66.878Z" fill="#415934"/>
<path fill-rule="evenodd" clip-rule="evenodd" d="M234.345 98.8538C234.252 105.469 230.177 112.577 226.617 117.975C222.289 124.528 216.866 130.477 210.874 135.642C207.298 132.259 203.743 128.853 200.053 125.597C198.803 124.497 197.463 123.498 196.246 122.36C196.216 122.332 196.177 122.352 196.165 122.382C196.141 122.392 196.123 122.42 196.138 122.451C197.718 125.407 199.482 128.151 201.579 130.745C203.587 133.225 205.459 135.81 207.457 138.298C206.73 138.875 205.997 139.443 205.257 139.999C200.891 143.277 196.159 145.956 190.837 147.249C190.762 147.185 190.69 147.122 190.614 147.059C189.59 146.19 188.595 145.301 187.619 144.376C186.573 143.384 185.512 142.405 184.394 141.495C183.394 140.682 182.483 139.784 181.555 138.892C180.551 137.926 179.508 136.989 178.288 136.302C178.27 136.29 178.249 136.294 178.237 136.306C178.216 136.307 178.195 136.321 178.192 136.342C178.18 136.39 178.198 136.425 178.219 136.461C178.216 136.472 178.216 136.484 178.222 136.496C180.602 140.531 183.508 144.206 186.311 147.946C181.927 148.21 177.543 147.223 173.495 144.364C172.125 143.395 170.932 142.328 169.908 141.179C169.745 140.999 169.586 140.815 169.433 140.63C162.248 131.972 164.135 119.157 171.452 110.435C179.106 101.318 190.068 94.8605 201.336 91.2403C209.2 88.7131 224.606 84.305 231.533 90.9396C232.29 91.6655 232.915 92.5361 233.384 93.5723C233.477 93.7742 233.561 93.983 233.639 94.1984C234.12 95.5022 234.369 97.0428 234.345 98.8538Z" fill="#415934"/>
<path fill-rule="evenodd" clip-rule="evenodd" d="M228.407 68.9963C227.56 69.8874 226.689 70.7601 225.799 71.6154C224.714 70.2893 223.503 69.0813 222.046 68.1989C222.01 68.1779 221.962 68.2137 221.974 68.2533C222.518 69.9679 223.494 71.5073 224.11 73.1888C222.635 74.5275 221.111 75.8175 219.543 77.0604C219.092 76.4737 218.632 75.8938 218.161 75.3239C217.373 74.3707 216.529 73.4748 215.709 72.551C215.135 71.9035 214.594 71.227 213.972 70.6228C213.32 69.9928 212.52 69.3162 211.583 69.2237C211.541 69.2195 211.526 69.2661 211.541 69.2961C213.052 72.7183 214.903 75.9753 216.571 79.322C211.877 82.7529 206.871 85.7741 201.757 88.3767C193.07 92.7972 181.492 96.058 173.087 89.2804C172.14 88.5167 171.302 87.6788 170.569 86.782C170.412 86.5897 170.259 86.3944 170.112 86.1964C164.258 78.3769 165.752 66.4468 171.41 58.7327C179.619 47.5372 194.163 41.0459 206.763 36.2183C210.85 34.6527 215.06 33.351 219.345 32.4307C219.438 33.2659 219.615 34.0921 219.834 34.9009C220.054 35.6946 220.327 36.4724 220.595 37.2505C220.868 38.0506 221.178 38.844 221.565 39.5981C221.95 40.3471 222.431 41.1462 223.158 41.6083C223.182 41.6236 223.224 41.6101 223.227 41.5791C223.515 39.7883 223.164 37.9725 223.02 36.1843C222.944 35.2392 222.947 34.2862 222.954 33.3383C222.957 32.8078 222.969 32.2763 222.99 31.7455C225.457 31.3495 227.948 31.0875 230.448 30.983C234.799 30.8003 240.523 30.9929 242.795 34.8585C242.906 35.049 243.008 35.2491 243.105 35.4576C243.42 36.1537 243.636 36.9528 243.73 37.87C244.85 48.8014 235.511 61.524 228.407 68.9963Z" fill="#415934"/>
<path fill-rule="evenodd" clip-rule="evenodd" d="M157.56 184.402C157.26 193.555 156.704 202.712 156.701 211.873C156.701 212.308 156.025 212.307 156.025 211.873C156.025 210.92 156.031 209.967 156.046 209.012C156.178 199.759 156.725 190.516 156.98 181.266C157.236 171.871 157.248 162.461 155.553 153.182C155.033 150.334 154.366 147.53 153.573 144.767C151.568 137.771 148.75 131.035 145.459 124.51C140.799 115.274 135.645 106.156 128.424 98.6519C122.379 92.3691 117.667 84.4239 110.395 79.4215C110.632 79.2968 110.882 79.1974 111.137 79.1198C111.501 79.3809 111.858 79.6495 112.21 79.925C115.924 82.8349 118.983 86.4864 121.97 90.1086C123.475 91.9361 124.966 93.7781 126.519 95.5641C128.115 97.3964 129.846 99.1023 131.429 100.943C138.209 108.817 143.218 118.157 147.68 127.486C150.261 132.882 152.449 138.451 154.105 144.177C155.264 148.178 156.163 152.255 156.761 156.401C158.095 165.673 157.87 175.066 157.56 184.402Z" fill="#401E18"/>
<path fill-rule="evenodd" clip-rule="evenodd" d="M161.797 160.717C161.8 161.748 161.794 162.78 161.785 163.811C161.71 169.944 161.41 176.075 161.163 182.214C160.938 187.797 160.709 193.38 160.556 198.966C160.454 202.749 160.28 206.576 160.541 210.356C160.571 210.792 159.895 210.788 159.865 210.356C159.82 209.695 159.796 209.033 159.781 208.37C159.562 198.369 160.244 188.32 160.64 178.331C160.782 174.82 160.926 171.309 161.034 167.797C161.076 166.409 161.112 165.021 161.142 163.633C161.145 163.449 161.148 163.263 161.151 163.078C161.259 157.563 160.926 152.064 160.55 146.562C159.967 137.98 159.066 129.421 157.72 120.923C156.31 112.004 154.42 103.161 152.407 94.36C151.755 91.5119 151.082 88.6684 150.394 85.829C148.912 79.7267 147.347 73.6451 145.718 67.5807C144.516 63.104 143.281 58.636 142.016 54.177C140.847 50.0569 139.705 45.9341 138.191 41.9252C132.698 27.3889 123.878 14.3873 114.794 1.85516C114.983 1.73619 115.179 1.62233 115.377 1.51508C115.837 2.14688 116.294 2.78018 116.747 3.41409C126.39 16.8547 135.736 31.0536 140.649 46.997C143.356 55.7888 145.7 64.7188 148.017 73.6208C149.05 77.5882 150.051 81.5641 151.019 85.5478C152.242 90.5725 153.407 95.6095 154.504 100.662C156.403 109.393 158.101 118.161 159.291 127.02C160.415 135.414 161.121 143.857 161.578 152.312C161.728 155.115 161.791 157.916 161.797 160.717Z" fill="#401E18"/>
<path fill-rule="evenodd" clip-rule="evenodd" d="M243.105 35.4575C241.999 35.9506 240.893 36.4484 239.793 36.951C226.34 43.0957 213.121 49.9292 200.645 57.89C189.566 64.9615 178.574 73.3591 171.711 84.794C171.317 85.4502 170.935 86.1132 170.569 86.782C164.448 97.8873 161.761 110.62 159.55 122.992C158.294 130.024 156.947 137.08 156.055 144.168C155.048 152.122 154.625 160.134 154.318 168.141C154.012 176.144 153.819 184.152 153.263 192.141C152.99 196.065 152.551 199.976 152.311 203.902C152.218 205.414 152.245 206.914 152.212 208.425C152.188 209.639 152.127 210.985 151.466 212.043C151.235 212.412 150.649 212.071 150.88 211.702C151.632 210.506 151.547 208.879 151.541 207.521C151.529 203.889 151.908 200.279 152.23 196.663C152.584 192.67 152.828 188.667 153.014 184.662C153.395 176.608 153.555 168.546 153.984 160.494C154.408 152.555 155.111 144.626 156.488 136.791C157.647 130.193 158.687 123.573 159.985 117C162.071 106.456 164.835 95.6491 170.112 86.1964C171.32 84.0315 172.66 81.9381 174.154 79.9346C181.99 69.4196 193.082 61.6435 204.173 54.8977C216.571 47.3557 229.546 40.773 242.795 34.8585C242.906 35.049 243.008 35.249 243.105 35.4575Z" fill="#401E18"/>
<path fill-rule="evenodd" clip-rule="evenodd" d="M233.639 94.1984C224.826 97.1162 216.219 100.699 208.067 105.142C199.509 109.803 191.432 115.429 184.436 122.232C178.7 127.811 173.748 134.173 169.908 141.179C169.054 142.735 168.255 144.324 167.516 145.943C162.563 156.779 160.391 168.662 159.544 180.479C158.792 190.932 158.786 201.431 157.876 211.873C157.837 212.303 157.161 212.306 157.2 211.873C157.299 210.723 157.386 209.572 157.461 208.421C158.167 197.853 158.158 187.234 159.18 176.687C160.328 164.821 163.008 153 168.51 142.354C168.811 141.775 169.117 141.2 169.433 140.63C173.847 132.619 179.731 125.473 186.522 119.356C193.851 112.756 202.183 107.329 210.958 102.853C218.173 99.1729 225.697 96.1208 233.384 93.5723C233.477 93.7742 233.561 93.983 233.639 94.1984Z" fill="#401E18"/>
<path fill-rule="evenodd" clip-rule="evenodd" d="M175.788 243.936C176.158 242.777 176.416 241.587 176.591 240.421C177.213 236.263 176.825 232.027 176.771 227.845C176.72 223.673 176.663 219.5 176.663 215.327C176.663 212.066 176.651 208.806 176.672 205.546C176.675 205.155 176.545 204.627 176.155 204.644C175.911 204.655 175.752 204.893 175.611 205.091C174.797 206.229 173.369 206.731 172.023 207.117C165.98 208.85 159.613 209.609 153.332 209.232C150.294 209.05 147.271 208.602 144.309 207.891C141.592 207.238 139.116 205.819 136.595 204.626C136.532 204.594 136.466 204.579 136.406 204.576C136.216 204.173 135.483 204.242 135.483 204.785C135.483 211.962 135.549 219.138 135.57 226.315C135.591 232.83 134.732 239.812 137.145 246.027C137.737 247.551 138.551 249.038 139.816 250.074C142.238 252.066 146.382 252.772 149.333 253.033C152.798 253.34 154.456 253.679 157.939 253.688C161.836 253.697 167.089 253.069 170.572 251.069C173.255 249.53 174.866 246.839 175.788 243.936Z" fill="#FF9E47"/>
<path fill-rule="evenodd" clip-rule="evenodd" d="M163.48 73.9446C162.254 76.9435 160.397 79.6786 157.999 81.8657C156.091 83.607 153.882 84.9553 151.55 86.0456C151.532 85.805 151.514 85.5643 151.499 85.3246C154.102 84.0787 156.533 82.49 158.54 80.3906C160.733 78.0954 162.383 75.2948 163.375 72.2814C164.514 68.8214 164.826 65.1306 164.655 61.5075C164.399 56.1697 163.05 50.9645 161.232 45.9446C161.374 45.6857 161.518 45.4276 161.662 45.1695C162.515 47.4813 163.276 49.8289 163.883 52.2197C165.662 59.2353 166.278 67.102 163.48 73.9446Z" fill="#401E18"/>
<path fill-rule="evenodd" clip-rule="evenodd" d="M199.822 91.0364C199.692 91.3203 199.557 91.6036 199.422 91.886C197.805 92.4562 196.207 93.0715 194.629 93.7502C190.149 95.681 185.849 98.0556 181.876 100.893C178.703 103.158 175.674 105.693 173.036 108.575C172.768 108.54 172.501 108.499 172.236 108.456C173.558 106.982 174.983 105.601 176.476 104.3C180.172 101.075 184.235 98.2749 188.55 95.9421C192.168 93.986 195.948 92.3904 199.822 91.0364Z" fill="#401E18"/>
<path fill-rule="evenodd" clip-rule="evenodd" d="M172.489 57.3006C167.963 62.9435 165.538 70.2992 166.62 77.5369C167.173 81.2144 168.661 84.736 171.188 87.4934C171.377 87.7001 171.572 87.9011 171.771 88.0963C171.954 88.2799 172.143 88.4578 172.336 88.6317C174.559 90.6401 177.273 92.0335 180.217 92.6917C187.201 94.2515 194.461 91.9079 200.774 88.8684C200.642 89.1818 200.51 89.4939 200.374 89.804C200.155 89.9055 199.939 90.0059 199.719 90.1044C192.901 93.1856 184.749 95.3649 177.465 92.57C175.518 91.8229 173.721 90.7338 172.158 89.3729C171.963 89.2037 171.771 89.0298 171.584 88.8522C170.761 88.0741 170.013 87.217 169.346 86.2938C167.125 83.2081 165.992 79.4533 165.749 75.6823C165.511 72.0147 166.106 68.29 167.38 64.8473C168.658 61.4077 170.641 58.3343 173.051 55.5821C176.711 51.3992 181.206 48.0149 185.981 45.1521C186.287 44.9685 186.594 44.788 186.9 44.6098C188.361 43.7596 189.845 42.9554 191.339 42.1911C195.005 40.3113 198.785 38.6595 202.607 37.1228C205.618 35.9118 208.65 34.7551 211.739 33.7655C211.739 33.9993 211.739 34.2342 211.736 34.4679C207.929 35.6877 204.203 37.1664 200.516 38.7058C196.796 40.259 193.133 41.9513 189.593 43.8774C188.562 44.438 187.537 45.0187 186.525 45.6229C186.218 45.8064 185.912 45.9918 185.605 46.1805C180.695 49.2016 176.098 52.7977 172.489 57.3006Z" fill="#401E18"/>
<path fill-rule="evenodd" clip-rule="evenodd" d="M117.703 127.452C117.703 127.452 113.159 139.63 113.153 140.596C113.153 141.368 124.632 164.498 124.632 164.498C124.632 164.498 128.208 167.994 128.109 168.247C127.625 169.504 117.511 173.617 116.588 173.23C115.666 172.843 100.199 143.028 100.199 140.789C100.193 135.957 103.679 126.151 103.679 126.151L117.703 127.452Z" fill="#D66B4B"/>
<path fill-rule="evenodd" clip-rule="evenodd" d="M116.104 172.39C116.75 171.396 116.976 170.367 116.916 169.191C116.856 167.983 116.618 166.768 116.339 165.594C116.074 164.494 115.813 163.316 115.302 162.302C114.761 161.227 114.115 160.189 113.499 159.156C110.81 154.641 107.925 150.239 105.043 145.843C103.421 143.369 101.789 140.903 100.139 138.447C99.8988 138.087 99.3098 138.425 99.5562 138.788C102.369 142.983 105.148 147.202 107.883 151.45C109.256 153.583 110.614 155.727 111.942 157.89C112.598 158.958 113.244 160.032 113.863 161.122C114.121 161.579 114.398 162.029 114.641 162.495C114.932 163.05 115.077 163.614 115.257 164.208C115.642 165.461 115.933 166.745 116.122 168.043C116.222 168.709 116.285 169.393 116.24 170.067C116.191 170.799 115.918 171.438 115.521 172.048C115.284 172.414 115.87 172.754 116.104 172.39Z" fill="#401E18"/>
<path fill-rule="evenodd" clip-rule="evenodd" d="M121.014 114.899C120.843 123.103 120.585 130.492 120.798 131.007C121.014 131.522 114.527 132.639 109.929 131.393C109.454 131.264 109.025 131.141 108.643 131.025C108.373 130.943 108.123 130.865 107.895 130.789C105.32 129.94 105.29 129.504 105.29 129.504C105.29 129.504 112.075 114.502 114.668 109.834C114.806 109.588 114.929 109.371 115.044 109.186C115.167 108.993 115.287 108.797 115.401 108.599C115.521 108.36 115.654 108.125 115.798 107.896C116.173 107.157 116.125 106.113 116.618 105.48C116.786 105.349 116.862 105.342 116.862 105.342C118.833 107.176 120.717 110.346 120.993 112.989C121.005 113.285 121.014 113.591 121.02 113.909C121.02 114.227 121.02 114.558 121.014 114.899Z" fill="#FFDCBF"/>
<path fill-rule="evenodd" clip-rule="evenodd" d="M96.2658 254.656L94.9526 265.255C94.9526 265.255 99.3609 269.194 102.832 271.633C106.302 274.073 108.46 273.883 109.304 275.385C110.149 276.885 107.504 278.2 103.246 278.2C98.9853 278.2 94.7814 275.968 92.3444 275.968C90.9952 275.968 87.9993 276.839 85.1626 276.948C82.8638 277.035 80.6462 276.479 79.6576 275.668C75.9976 272.664 78.8282 267.601 78.9063 264.504C79.0025 260.718 79.2249 256.933 79.4683 253.154L96.2658 254.656Z" fill="#D66B4B"/>
<path fill-rule="evenodd" clip-rule="evenodd" d="M104.358 274.869C106.062 275.349 107.679 276.185 109.292 276.9C109.686 277.074 110.031 276.491 109.632 276.314C107.967 275.578 106.296 274.712 104.538 274.217C104.118 274.1 103.937 274.751 104.358 274.869Z" fill="#401E18"/>
<path fill-rule="evenodd" clip-rule="evenodd" d="M10.9079 237.603C10.9079 237.603 4.52812 247.671 3.52748 249.047C2.52684 250.423 -1.42073 254.893 0.955866 258.835C3.33276 262.773 14.7229 271.495 17.0995 273.436C19.4764 275.373 24.8261 275.554 25.4493 274.373C26.0064 273.315 24.653 271.738 23.4793 269.527C22.0838 266.895 21.2656 264.864 20.8524 263.449C20.06 260.739 18.8508 257.615 18.8508 257.615L27.7835 247.088L10.9079 237.603Z" fill="#D66B4B"/>
<path fill-rule="evenodd" clip-rule="evenodd" d="M19.7694 271.591C20.7965 272.682 21.5817 273.979 22.1313 275.37C22.2893 275.773 22.9438 275.599 22.7836 275.19C22.1896 273.688 21.3593 272.294 20.2478 271.113C19.9488 270.795 19.471 271.273 19.7694 271.591Z" fill="#401E18"/>
<path fill-rule="evenodd" clip-rule="evenodd" d="M22.8627 271.525C23.93 272.685 24.6629 274.094 25.6338 275.328C25.9027 275.668 26.3787 275.187 26.1122 274.848C25.1404 273.613 24.4108 272.207 23.341 271.047C23.0454 270.726 22.5679 271.206 22.8627 271.525Z" fill="#401E18"/>
<path fill-rule="evenodd" clip-rule="evenodd" d="M98.4655 151.989C98.3092 160.048 97.8885 168.098 97.3235 176.137C96.3229 190.359 94.8805 204.544 93.6966 218.751C93.1016 225.855 92.5727 232.965 92.2001 240.085C91.8636 246.451 91.7464 252.814 91.6172 259.183C91.3948 259.198 91.1664 259.213 90.9351 259.228C90.9861 256.014 91.0192 252.802 91.1184 249.588C91.2446 245.553 91.4339 241.524 91.6653 237.495C92.4886 223.26 93.8769 209.066 95.1299 194.863C96.389 180.598 97.5098 166.311 97.7863 151.989C97.7953 151.554 98.4714 151.554 98.4655 151.989Z" fill="#497B9C"/>
<path fill-rule="evenodd" clip-rule="evenodd" d="M88.4921 132.883C85.2438 141.808 81.1451 150.398 76.7459 158.807C72.1724 167.539 67.3464 176.143 62.4244 184.68C57.4723 193.271 52.3789 201.78 47.1482 210.204C41.9254 218.619 36.5682 226.951 31.0854 235.2C28.4242 239.202 25.7243 243.158 22.8525 247.013C21.82 248.398 20.7857 249.786 19.7803 251.192C19.6072 251.045 19.4353 250.894 19.2661 250.75C20.9104 248.458 22.6271 246.217 24.2907 243.939C27.1375 240.043 29.765 235.984 32.4214 231.958C37.8528 223.724 43.1589 215.406 48.3313 207.006C53.5298 198.561 58.5931 190.034 63.5122 181.425C68.3711 172.926 73.155 164.368 77.6173 155.652C81.4516 148.167 84.9914 140.519 87.8701 132.614C88.0774 132.702 88.2848 132.792 88.4921 132.883Z" fill="#497B9C"/>
<path fill-rule="evenodd" clip-rule="evenodd" d="M82.5574 130.495C79.2249 136.699 76.2921 143.121 73.1369 149.416C68.6566 158.356 63.6534 167.028 58.3677 175.513C53.073 184.002 47.4905 192.306 41.8181 200.546C35.996 209.002 30.1352 217.435 24.1158 225.754C21.213 229.765 18.2492 233.722 15.2341 237.649C13.881 239.409 12.545 241.188 11.2931 243.023C11.1318 242.84 10.9779 242.663 10.834 242.491C12.7238 239.743 14.7972 237.12 16.83 234.482C19.9233 230.462 22.8795 226.336 25.8337 222.216C31.763 213.947 37.5619 205.582 43.3058 197.184C48.9533 188.929 54.4853 180.593 59.7019 172.059C64.9365 163.498 69.8045 154.73 74.2157 145.715C76.7428 140.546 79.2069 135.331 81.9293 130.262C82.1337 130.337 82.344 130.415 82.5574 130.495Z" fill="#497B9C"/>
<path fill-rule="evenodd" clip-rule="evenodd" d="M111.281 101.326L108.899 109.895L105.74 113.246L100.65 101.154L105.248 93.8523L111.281 101.326Z" fill="#D66B4B"/>
<path fill-rule="evenodd" clip-rule="evenodd" d="M117.706 111.364C117.622 111.613 117.532 111.856 117.43 112.092C117.324 112.42 117.216 112.746 117.108 113.07C116.116 115.996 114.968 118.87 113.8 121.727C112.904 123.909 111.918 126.085 110.503 127.986C108.944 130.082 106.753 131.476 104.968 133.347C104.148 134.207 102.789 139.314 101.909 140.118C100.981 140.968 99.7125 141.547 98.4864 141.808C95.2381 142.501 90.4933 138.385 87.5034 137.278C77.5782 133.605 75.3245 128.452 75.8383 125.552C75.9615 124.858 77.2206 121.721 77.7344 119.321C77.7464 119.26 77.7615 119.199 77.7705 119.141C77.9027 118.498 78.0259 117.847 78.1521 117.192C78.6539 114.537 79.1287 111.828 79.7718 109.39C79.8499 109.087 79.934 108.787 80.0182 108.493C81.9894 101.773 89.045 99.1525 95.3673 98.8076C95.6077 98.795 95.8421 98.7823 96.0735 98.7709C99.5562 98.5997 102.258 98.6006 102.258 98.6006C102.258 98.6006 105.803 110.797 106.095 111.184C106.383 111.57 111.218 101.713 111.218 101.713C111.218 101.713 111.573 101.858 112.129 102.104C113.328 102.794 114.752 103.477 115.921 104.379C116.155 104.56 116.378 104.749 116.591 104.949C118.397 106.577 118.301 109.186 117.706 111.364Z" fill="#FFDCBF"/>
<path fill-rule="evenodd" clip-rule="evenodd" d="M123.085 84.9981C122.604 83.599 121.994 82.789 121.005 82.0674C119.187 80.7452 118.475 80.1632 115.566 79.6096C113.406 79.1983 112.303 78.8876 110.32 79.9641C100.809 85.1302 102.729 95.6651 110.079 101.638C111.242 102.581 112.739 103.617 114.103 103.324C116.198 102.875 117.378 100.614 118.671 98.5357C118.671 98.5369 119.238 98.6081 119.296 98.6045C119.509 98.5916 119.731 98.5387 119.897 98.3939C120.182 98.1376 120.128 97.6503 120.152 97.3018C120.2 96.612 120.218 95.9024 120.594 95.3055C120.852 94.8963 121.12 94.4934 121.387 94.0899C121.904 93.3061 122.442 92.5208 122.853 91.6748C123.391 90.5713 124.536 89.2125 123.085 84.9981Z" fill="#D66B4B"/>
<path fill-rule="evenodd" clip-rule="evenodd" d="M110.915 102.317C110.837 102.475 110.738 102.68 110.617 102.921C109.319 102.1 108.286 100.926 107.408 99.6097C107.168 99.2453 107.754 98.907 107.994 99.2684C108.793 100.471 109.734 101.555 110.915 102.317Z" fill="#401E18"/>
<path fill-rule="evenodd" clip-rule="evenodd" d="M112.216 74.425C111.921 73.0112 111.275 71.866 110.058 71.0545C108.295 69.8768 105.809 71.3219 105.142 72.9451C104.361 74.8541 105.542 76.9892 106.477 78.9312C107.147 80.3213 109.334 81.9066 111.044 80.5508C111.885 79.8826 112.234 78.7209 112.36 77.6964C112.492 76.6272 112.435 75.481 112.216 74.425Z" fill="#401E18"/>
<path fill-rule="evenodd" clip-rule="evenodd" d="M101.909 172.173C100.908 193.457 97.2304 258.709 96.2298 258.832C95.8151 258.886 94.0362 259.024 91.6172 259.183C91.3948 259.198 91.1665 259.213 90.9351 259.228C88.2937 259.4 85.0304 259.592 81.9864 259.733C81.758 259.742 81.5297 259.754 81.3043 259.763C80.7213 259.79 80.1474 259.811 79.5945 259.832C77.0794 259.928 74.1676 260.115 71.4842 260.244C71.2498 260.256 71.0184 260.268 70.79 260.277C66.6973 260.466 63.2717 260.496 62.83 259.832C62.0788 258.709 69.8856 219.219 70.5136 215.593C70.6819 214.617 71.2107 209.783 71.9409 203.076C72.004 202.494 72.0701 201.899 72.1362 201.29C74.1465 182.834 77.455 152.61 79.1407 146.734C81.5206 138.43 84.0177 131.046 84.6668 131.304C85.3189 131.562 101.909 137.054 101.909 137.054C101.909 137.054 102.91 150.888 101.909 172.173Z" fill="#B3CDE3"/>
<path fill-rule="evenodd" clip-rule="evenodd" d="M80.1083 184.202C80.0813 190.009 79.3751 195.776 78.6179 201.524C77.9388 206.66 77.3258 211.794 76.863 216.956C76.3912 222.184 75.9795 227.419 75.4777 232.646C74.5913 241.912 73.3142 251.123 71.4842 260.244C71.2498 260.256 71.0184 260.268 70.79 260.277C71.7396 255.587 72.5569 250.87 73.233 246.133C74.7085 235.783 75.4026 225.35 76.3672 214.947C76.845 209.802 77.5361 204.69 78.1972 199.565C78.8523 194.467 79.4082 189.348 79.4292 184.202C79.4322 183.766 80.1083 183.767 80.1083 184.202Z" fill="#497B9C"/>
<path fill-rule="evenodd" clip-rule="evenodd" d="M89.8713 159.533C89.8352 165.362 89.4596 171.194 89.0299 177.005C88.5641 183.306 87.9061 189.591 87.3562 195.886C86.6981 203.393 86.1181 210.906 85.5472 218.42C84.9913 225.718 84.4414 233.016 83.8254 240.31C83.2815 246.782 82.7677 253.28 81.9864 259.733C81.758 259.742 81.5296 259.754 81.3043 259.763C81.3103 259.712 81.3163 259.664 81.3223 259.61C82.1667 252.207 82.7857 244.775 83.3957 237.348C83.9967 230.054 84.5376 222.753 85.0965 215.455C85.6734 207.919 86.2684 200.383 86.9475 192.856C87.4914 186.825 88.0984 180.804 88.5131 174.762C88.9037 169.107 89.2643 163.422 89.1892 157.751C89.1832 157.315 89.8593 157.316 89.8653 157.751C89.8713 158.346 89.8743 158.939 89.8713 159.533Z" fill="#497B9C"/>
<path fill-rule="evenodd" clip-rule="evenodd" d="M97.6571 139.555C96.9629 141.636 90.4963 161.641 82.5934 179.95C76.244 194.654 68.2779 208.265 66.8866 210.615C63.7585 215.892 35.3629 262.242 34.6116 262.242C34.0133 262.242 32.3778 261.205 27.6062 257.495C27.4332 257.36 27.2574 257.221 27.0756 257.08C25.9929 256.236 24.7594 255.26 23.354 254.142C22.0973 253.142 20.9025 252.153 19.7802 251.192C19.6071 251.045 19.4352 250.894 19.2661 250.75C15.8083 247.755 13.0651 245.042 11.2931 243.023C11.1317 242.84 10.9779 242.663 10.8339 242.491C9.87507 241.356 9.27679 240.485 9.09409 239.971C8.46846 238.21 28.9828 204.463 32.9857 198.087C35.7532 193.678 38.0907 188.926 40.2831 184.102C40.6485 183.3 41.0091 182.497 41.3667 181.692C43.0834 177.835 44.7394 173.961 46.4802 170.209C52.0122 158.283 56.5917 144.232 67.094 135.689C67.4996 135.359 68.32 134.668 69.3447 133.848C69.6722 133.587 70.0208 133.314 70.3814 133.033C73.1369 130.906 76.7187 128.452 78.2062 128.944C78.2092 128.946 79.7327 129.451 81.9293 130.262C82.1336 130.337 82.344 130.415 82.5573 130.495C84.1409 131.089 86.004 131.816 87.87 132.614C88.0774 132.702 88.2847 132.792 88.492 132.883C91.1754 134.053 93.8017 135.356 95.5626 136.599C95.7579 136.739 95.9443 136.877 96.1155 137.013C97.2815 137.931 97.9065 138.805 97.6571 139.555Z" fill="#B3CDE3"/>
<path fill-rule="evenodd" clip-rule="evenodd" d="M96.1155 137.013C95.8992 137.524 95.6798 138.035 95.4605 138.544C91.7404 147.18 87.7528 155.704 83.3837 164.032C79.0956 172.2 74.8196 180.371 70.5436 188.543C66.2496 196.749 61.8654 204.915 57.1026 212.861C52.2256 220.995 46.9769 228.918 41.6837 236.783C38.9733 240.815 36.1988 244.799 33.5097 248.843C32.1824 250.84 30.8978 252.865 29.5736 254.866C28.9684 255.779 28.3043 256.651 27.6062 257.495C27.4331 257.36 27.2574 257.222 27.0756 257.08C27.0921 257.059 27.1074 257.041 27.1239 257.023C28.6396 255.185 29.8683 253.151 31.1704 251.162C32.4928 249.143 33.8315 247.133 35.1868 245.132C37.8828 241.155 40.6079 237.198 43.27 233.199C48.4965 225.351 53.668 217.451 58.4187 209.304C63.0493 201.361 67.3464 193.229 71.5893 185.077C73.7168 180.988 75.8323 176.892 77.9718 172.808C80.1203 168.707 82.3349 164.641 84.4414 160.517C88.441 152.684 92.11 144.688 95.5626 136.599C95.7579 136.739 95.9443 136.877 96.1155 137.013Z" fill="#497B9C"/>
<path fill-rule="evenodd" clip-rule="evenodd" d="M70.3814 133.033C69.558 135.243 68.5905 137.407 67.677 139.578C63.9118 148.548 59.3653 157.163 54.0707 165.324C49.8487 171.833 45.2392 178.121 40.2831 184.102C40.6485 183.3 41.0091 182.497 41.3667 181.692C43.1078 179.524 44.8023 177.32 46.4589 175.086C52.0153 167.591 57.0936 159.73 61.3846 151.442C63.6804 147.008 65.7718 142.471 67.6679 137.851C68.2088 136.532 68.8008 135.2 69.3447 133.848C69.6722 133.587 70.0208 133.314 70.3814 133.033Z" fill="#497B9C"/>
<path fill-rule="evenodd" clip-rule="evenodd" d="M93.7296 153.777C92.4375 157.23 91.1033 160.667 89.7481 164.096C87.0196 171 84.2281 177.888 81.1931 184.665C78.3865 190.931 75.2584 197.059 71.9409 203.076C72.004 202.494 72.0701 201.899 72.1362 201.29C73.5185 198.739 74.8647 196.169 76.1719 193.579C79.5284 186.928 82.5062 180.119 85.3399 173.23C88.0173 166.726 90.6135 160.185 93.0776 153.597C93.2278 153.193 93.8829 153.368 93.7296 153.777Z" fill="#401E18"/>
<path fill-rule="evenodd" clip-rule="evenodd" d="M114.25 117.587C113.911 119.125 113.739 120.691 113.349 122.218C113.024 123.489 112.967 124.817 112.592 126.076C112.207 127.367 111.396 128.378 110.446 129.309C109.986 129.76 109.509 130.188 109.046 130.638C108.914 130.769 108.778 130.899 108.643 131.025C108.373 130.943 108.123 130.865 107.895 130.789C108.168 130.555 108.424 130.3 108.682 130.047C109.145 129.596 109.629 129.17 110.085 128.714C111.038 127.763 111.741 126.771 112.06 125.449C112.348 124.236 112.456 122.991 112.763 121.781C113.126 120.34 113.277 118.858 113.598 117.408C113.691 116.983 114.346 117.163 114.25 117.587Z" fill="#401E18"/>
<path fill-rule="evenodd" clip-rule="evenodd" d="M116.811 94.1828C117.264 94.1653 117.727 94.2762 118.151 94.4276C118.511 94.5559 119.07 94.7629 119.244 95.1387C119.416 95.5113 120.032 95.3103 119.854 94.9326C119.386 93.9211 117.796 93.499 116.774 93.538C116.36 93.554 116.396 94.1984 116.811 94.1828Z" fill="#401E18"/>
<path fill-rule="evenodd" clip-rule="evenodd" d="M121.156 92.6076C120.999 92.1089 119.888 91.7568 119.395 91.6141C118.857 91.4584 118.079 91.356 117.619 91.727C117.051 92.187 117.88 92.4823 118.731 92.8002C119.338 93.0276 120.311 93.4665 120.582 93.4187C120.888 93.3647 121.129 93.1327 121.174 92.8563C121.186 92.7683 121.18 92.6851 121.156 92.6076Z" fill="#401E18"/>
<path fill-rule="evenodd" clip-rule="evenodd" d="M118.923 94.5348C118.899 94.5234 118.878 94.5153 118.854 94.5066C118.223 94.2696 117.664 94.804 117.55 95.4022C117.457 95.8961 117.823 96.4213 118.364 96.3444C118.583 96.3131 118.962 96.0547 119.106 95.8841C119.428 95.4956 119.5 94.8287 118.923 94.5348Z" fill="#401E18"/>
<path fill-rule="evenodd" clip-rule="evenodd" d="M118.328 99.4325C118.31 99.4063 118.289 99.3811 118.265 99.3573C118.166 99.2633 118.04 99.2062 117.91 99.1663C117.411 99.0107 116.149 98.7198 115.852 99.3048C115.723 99.5559 115.939 99.9489 116.071 100.156C116.318 100.544 116.624 101.27 117.102 101.149C117.366 101.082 117.757 100.619 117.664 100.315C117.682 100.37 118.244 100.028 118.292 99.972C118.427 99.8071 118.445 99.6007 118.328 99.4325Z" fill="#A93927"/>
<path fill-rule="evenodd" clip-rule="evenodd" d="M124.112 89.323C124.112 89.323 121.387 91.168 116.51 91.1352C112.366 91.1073 109.539 91.0243 109.539 91.0243C109.539 91.0243 107.757 93.4747 106.702 93.8959C106.395 94.019 105.984 94.3859 105.734 94.4637C104.887 94.7265 104 94.1957 103.823 93.3286C103.619 92.324 103.613 90.8828 103.598 90.7434C103.387 88.6975 103.414 86.8616 104.259 84.9337C105.404 82.3125 107.567 80.3197 110.215 79.2905C111.044 78.9681 111.948 78.6202 112.838 78.5322C113.803 78.4369 114.848 78.6559 115.801 78.7944C120.924 79.5395 124.749 83.0434 124.362 87.8512C124.323 88.3328 124.251 88.8588 124.112 89.323Z" fill="#401E18"/>
<path fill-rule="evenodd" clip-rule="evenodd" d="M112.865 88.8336C112.61 88.5599 112.3 88.3244 111.934 88.1393C111.107 87.7202 110.125 87.622 109.283 88.0609C107.898 88.7832 107.399 90.322 107.387 91.828C107.375 93.8291 108.691 95.5365 110.686 95.1171C112.177 94.8031 112.613 93.3725 112.967 91.9461C113.256 90.7759 113.634 89.6613 112.865 88.8336Z" fill="#D66B4B"/>
<path fill-rule="evenodd" clip-rule="evenodd" d="M111.933 89.828C111.254 88.7642 109.692 88.5497 108.902 89.6144C108.138 90.641 108.162 92.2393 108.835 93.2971C109.067 93.6636 109.653 93.3247 109.418 92.9555C108.929 92.1807 108.871 91.1061 109.283 90.279C109.713 89.4204 110.822 89.3425 111.348 90.1696C111.582 90.5358 112.168 90.197 111.933 89.828Z" fill="#401E18"/>
<path fill-rule="evenodd" clip-rule="evenodd" d="M107.955 80.6463C108.61 80.3044 109.256 79.9382 109.929 79.633C110.762 79.2565 111.639 78.9997 112.519 78.7659C112.94 78.6545 112.76 78.0016 112.339 78.1137C111.435 78.3537 110.542 78.6259 109.686 79.0051C108.977 79.3187 108.301 79.7039 107.612 80.062C107.228 80.2636 107.57 80.8473 107.955 80.6463Z" fill="#D66B4B"/>
<path fill-rule="evenodd" clip-rule="evenodd" d="M99.8237 128.163C99.6554 128.783 99.1385 129.245 98.5946 129.545C97.9546 129.898 97.2244 130.103 96.5333 130.328C95.755 130.583 94.9707 130.827 94.1804 131.053C90.8419 132.009 87.3803 132.537 83.9036 132.511C83.0351 132.504 82.1787 132.461 81.3163 132.363C80.7063 132.292 79.9551 132.329 79.4322 131.96C79.0235 131.673 78.8703 131.209 78.8102 130.731C78.702 129.857 78.6569 128.973 78.5758 128.095C78.3024 125.168 77.9838 122.249 77.7344 119.321C77.7465 119.26 77.7615 119.199 77.7705 119.141C77.9027 118.498 78.0259 117.847 78.1521 117.192C78.2122 117.246 78.2543 117.324 78.2603 117.424C78.5247 121.083 78.9544 124.724 79.279 128.377C79.3481 129.182 79.3361 130.045 79.5073 130.837C79.6606 131.556 80.2285 131.562 80.8596 131.633C82.4672 131.816 84.0658 131.875 85.6825 131.806C88.9128 131.667 92.086 131.005 95.169 130.052C95.8752 129.833 96.5813 129.608 97.2815 129.365C97.9185 129.141 98.6998 128.873 99.0574 128.247C99.397 127.657 99.1325 126.844 99.0604 126.209C98.9733 125.404 98.8921 124.598 98.799 123.794C98.6127 122.192 98.3482 120.6 98.1679 118.997C97.9907 117.404 97.8644 115.806 97.6661 114.216C97.609 113.784 98.2881 113.789 98.3422 114.216C98.5886 116.184 98.7359 118.165 98.9793 120.134C99.2257 122.099 99.5021 124.054 99.7185 126.024C99.7936 126.708 100.01 127.48 99.8237 128.163Z" fill="#401E18"/>
<path fill-rule="evenodd" clip-rule="evenodd" d="M134.921 171.551C135.732 170.646 132.917 168.183 132.391 167.728C131.745 167.167 128.025 163.959 127.367 164.692L126.652 165.491L126.189 166.007L126.138 166.062C125.438 165.842 124.789 165.572 123.977 165.615C122.535 165.695 120.555 166.705 119.572 167.641C117.742 169.379 115.927 171.129 114.115 172.883C113.83 173.16 113.544 173.437 113.259 173.714C112.075 174.86 110.891 176.006 109.707 177.152C109.259 177.585 108.811 178.018 108.361 178.449C107.657 179.127 106.954 179.803 106.248 180.477C105.767 180.938 105.278 181.524 104.824 182.14C104.367 182.755 103.943 183.4 103.589 183.98C102.639 185.541 103.73 187.804 104.574 189.275C106.642 192.877 109.947 195.804 113.772 197.42C115.317 198.072 117.048 198.468 118.445 197.466C119.572 196.656 120.63 195.605 121.444 194.546C121.513 194.457 121.579 194.369 121.645 194.28C122.27 193.42 122.953 192.604 123.623 191.78C123.887 191.452 124.151 191.123 124.413 190.789C124.482 190.702 124.548 190.614 124.617 190.526C125.897 188.849 127.214 187.197 128.497 185.523C128.512 185.503 128.527 185.483 128.542 185.463C128.707 185.251 128.869 185.037 129.031 184.823C129.161 184.651 129.293 184.477 129.422 184.303C129.726 183.898 130.029 183.491 130.327 183.08C131.688 181.203 134.119 178.518 134.576 176.015C134.618 175.781 134.642 175.549 134.648 175.319C134.651 175.28 134.651 175.24 134.651 175.201C134.645 174.274 134.344 173.756 133.93 173.031C133.887 172.957 133.842 172.881 133.797 172.803C133.797 172.803 133.966 172.616 134.17 172.387C134.497 172.024 134.918 171.552 134.921 171.551Z" fill="#F5C6A2"/>
<path fill-rule="evenodd" clip-rule="evenodd" d="M127.7 185.189C126.072 184.696 124.47 184.031 123.073 183.039C121.63 182.015 120.822 180.646 119.671 179.365C118.601 178.17 117.415 177.084 116.128 176.129C115.365 175.563 114.557 175.042 113.86 174.393C113.637 174.183 113.442 173.952 113.259 173.714C112.075 174.86 110.891 176.006 109.707 177.152C109.259 177.585 108.811 178.018 108.361 178.449C107.657 179.127 106.954 179.803 106.248 180.477C105.767 180.938 105.278 181.524 104.824 182.139C105.284 182.6 105.722 183.079 106.116 183.611C106.69 184.389 107.21 185.207 107.802 185.976C108.977 187.503 110.509 188.773 112.066 189.898C113.736 191.105 115.551 192.017 117.439 192.831C118.773 193.407 120.11 193.976 121.444 194.546C121.513 194.457 121.579 194.369 121.645 194.28C122.27 193.42 122.953 192.604 123.623 191.78C123.887 191.452 124.155 191.123 124.413 190.789C124.482 190.702 124.548 190.614 124.617 190.526C125.897 188.849 127.214 187.197 128.497 185.523C128.512 185.503 128.527 185.483 128.542 185.463C128.265 185.365 127.983 185.274 127.7 185.189Z" fill="#E1AE85"/>
<path fill-rule="evenodd" clip-rule="evenodd" d="M122.61 169.929C122.24 170.418 121.534 170.62 120.96 170.403C120.513 170.234 120.176 169.848 119.939 169.432C119.987 169.499 120.038 169.566 120.086 169.633C119.779 169.179 119.404 168.618 118.965 168.125C118.815 167.955 118.659 167.794 118.493 167.649C118.19 167.378 117.862 167.161 117.517 167.044C116.477 166.691 115.566 167.665 114.788 168.239C113.875 168.91 112.991 169.623 112.141 170.37C111.798 170.713 111.453 171.054 111.11 171.392C109.743 172.74 108.382 174.07 107.099 175.517C107.011 175.617 106.927 175.714 106.849 175.811C106.254 176.561 106.026 177.251 106.528 178.227C106.639 178.44 106.759 178.639 106.885 178.828C107.014 179.018 107.153 179.199 107.294 179.374C107.657 179.824 108.06 180.239 108.46 180.699C108.475 180.716 108.487 180.732 108.502 180.748C108.992 181.348 109.124 182.179 108.508 182.792C107.931 183.37 107.044 183.309 106.459 182.792C106.032 182.416 105.644 181.995 105.284 181.553C105.139 181.375 104.998 181.195 104.86 181.012C104.815 180.951 104.77 180.891 104.725 180.83C102.961 178.447 103.018 176.009 104.854 173.722C104.89 173.675 104.929 173.628 104.968 173.582C105.608 172.794 106.302 172.048 107.008 171.319C107.624 170.686 108.252 170.061 108.893 169.45C110.04 168.358 111.23 167.31 112.471 166.331C114.049 165.086 115.891 163.509 118.043 164.267C118.659 164.484 119.8 165.155 120.822 166.006C121.002 166.157 121.183 166.314 121.351 166.474C122.541 167.6 123.37 168.925 122.61 169.929Z" fill="#F5C6A2"/>
<path fill-rule="evenodd" clip-rule="evenodd" d="M107.099 175.517C108.382 174.07 109.743 172.74 111.11 171.392C110.365 170.751 109.596 170.135 108.893 169.45C108.252 170.061 107.624 170.686 107.008 171.319C106.302 172.048 105.608 172.794 104.968 173.582C104.929 173.628 104.89 173.674 104.854 173.722C103.018 176.009 102.961 178.447 104.725 180.83C105.242 181.529 105.803 182.215 106.459 182.792C107.044 183.309 107.931 183.37 108.508 182.792C109.124 182.179 108.992 181.348 108.502 180.748C108.49 180.732 108.475 180.716 108.46 180.699C107.751 179.883 107.035 179.21 106.528 178.226C106.026 177.25 106.254 176.561 106.852 175.811C106.927 175.714 107.011 175.617 107.099 175.517Z" fill="#E1AE85"/>
<path fill-rule="evenodd" clip-rule="evenodd" d="M108.502 180.748C108.487 180.732 108.475 180.716 108.46 180.699C108.06 180.239 107.657 179.824 107.294 179.374C107.153 179.199 107.014 179.018 106.885 178.828C106.759 178.639 106.639 178.44 106.528 178.227C106.026 177.251 106.254 176.561 106.849 175.811C106.392 174.888 105.824 174.007 104.968 173.582C104.929 173.628 104.89 173.675 104.854 173.722C103.018 176.009 102.961 178.447 104.725 180.83C104.77 180.891 104.815 180.951 104.86 181.012C104.998 181.195 105.139 181.375 105.284 181.553C105.644 181.995 106.032 182.416 106.459 182.792C107.044 183.309 107.931 183.37 108.508 182.792C109.124 182.179 108.992 181.348 108.502 180.748Z" fill="#C28558"/>
<path fill-rule="evenodd" clip-rule="evenodd" d="M121.351 166.474C120.498 166.951 119.656 167.448 118.965 168.125C118.815 167.955 118.658 167.794 118.493 167.649C119.175 166.984 119.987 166.482 120.822 166.006C121.002 166.157 121.183 166.314 121.351 166.474Z" fill="#401E18"/>
<path fill-rule="evenodd" clip-rule="evenodd" d="M107.294 179.374C106.585 180.061 105.918 180.793 105.284 181.553C105.139 181.375 104.998 181.195 104.86 181.012C105.5 180.25 106.17 179.516 106.885 178.828C107.014 179.018 107.153 179.199 107.294 179.374Z" fill="#401E18"/>
<path fill-rule="evenodd" clip-rule="evenodd" d="M123.055 191.116C122.718 190.706 122.376 190.299 121.961 189.962C121.462 189.557 120.879 189.254 120.311 188.955C119.205 188.37 118.061 187.853 117.003 187.179C115.906 186.478 114.983 185.544 114.109 184.588C113.205 183.597 112.51 182.462 111.663 181.427C110.945 180.549 110.01 179.915 109.145 179.195C108.856 178.957 108.598 178.711 108.361 178.449C107.657 179.127 106.954 179.803 106.248 180.477C105.767 180.938 105.278 181.524 104.824 182.139C104.367 182.755 103.943 183.4 103.589 183.98C102.639 185.541 103.73 187.804 104.574 189.275C106.642 192.877 109.947 195.804 113.772 197.42C115.317 198.072 117.048 198.468 118.445 197.465C119.572 196.656 120.63 195.605 121.444 194.546C121.513 194.457 121.579 194.369 121.645 194.28C122.27 193.42 122.953 192.604 123.623 191.78C123.424 191.566 123.238 191.338 123.055 191.116Z" fill="#C28558"/>
<path fill-rule="evenodd" clip-rule="evenodd" d="M131.156 176.193C132.658 175.463 134.02 176.184 135.156 176.327C137.046 176.564 148.945 176.524 149.086 176.846C149.312 177.361 149.342 179.584 149.086 179.938C148.828 180.293 129.257 184.909 128.139 184.226C125.957 182.894 129.654 176.924 131.156 176.193Z" fill="#F5C6A2"/>
<path fill-rule="evenodd" clip-rule="evenodd" d="M133.797 172.803C133.842 172.881 133.887 172.957 133.93 173.031C133.608 172.839 133.293 172.637 132.977 172.434C131.97 171.78 130.994 171.09 130.08 170.306C128.605 169.044 127.301 167.594 126.189 166.007L126.652 165.49C127.73 167.052 129.001 168.476 130.438 169.724C131.321 170.493 132.268 171.17 133.25 171.806C133.557 172.001 133.86 172.2 134.17 172.387C133.966 172.616 133.797 172.803 133.797 172.803Z" fill="#401E18"/>
<path fill-rule="evenodd" clip-rule="evenodd" d="M134.648 175.319C134.642 175.549 134.618 175.781 134.576 176.015C134.212 176.067 133.857 176.291 133.551 176.48C132.433 177.175 131.442 178.113 130.588 179.11C129.747 180.091 128.986 181.27 128.809 182.578C128.734 183.15 128.8 183.966 129.377 184.28C129.392 184.289 129.407 184.297 129.422 184.303C129.293 184.477 129.161 184.651 129.032 184.823C128.34 184.406 128.028 183.499 128.13 182.598C128.292 181.163 129.071 179.881 129.975 178.791C130.922 177.649 132.064 176.568 133.35 175.812C133.737 175.582 134.185 175.348 134.648 175.319Z" fill="#401E18"/>
<path fill-rule="evenodd" clip-rule="evenodd" d="M115.855 166.542C115.846 166.494 115.837 166.446 115.825 166.397C115.816 166.35 115.807 166.301 115.795 166.255C115.783 166.201 115.771 166.148 115.762 166.095C115.744 166.019 115.726 165.945 115.708 165.869C115.696 165.814 115.681 165.758 115.669 165.703C115.648 165.616 115.624 165.528 115.602 165.441C115.581 165.355 115.56 165.271 115.539 165.188C115.515 165.095 115.488 165.004 115.464 164.915C115.458 164.886 115.449 164.857 115.44 164.829C115.425 164.778 115.41 164.729 115.398 164.679C115.392 164.653 115.383 164.627 115.377 164.602C115.338 164.468 115.299 164.34 115.263 164.221C115.26 164.209 115.254 164.197 115.251 164.186C115.02 163.437 114.839 162.979 114.839 162.979L109.457 165.885L104.505 167.608C104.505 167.608 105.924 172.806 106.906 174.115C107.201 174.507 107.703 175.036 108.096 175.16C108.466 175.276 108.889 175.315 109.274 175.25C109.376 175.232 109.469 175.202 109.548 175.165C109.935 174.988 110.061 174.636 110.094 174.629C110.236 174.896 110.527 174.952 110.795 174.979C111.05 175.004 111.308 175.024 111.558 174.96C111.876 174.879 112.108 174.723 112.279 174.548C112.667 174.143 112.721 173.627 112.763 173.643C113.28 173.843 113.766 173.41 114.106 173.064C114.199 172.969 114.301 172.822 114.404 172.658C114.677 172.214 114.935 171.646 114.935 171.646C115.128 171.66 115.299 171.612 115.449 171.526C115.744 171.358 115.963 171.042 116.125 170.743C116.134 170.731 116.14 170.717 116.149 170.705C116.197 170.51 116.228 170.317 116.234 170.125C116.237 170.088 116.237 170.051 116.237 170.015C116.237 168.816 116.071 167.609 115.855 166.542Z" fill="#D66B4B"/>
<path fill-rule="evenodd" clip-rule="evenodd" d="M110.094 174.629C110.061 174.636 109.935 174.988 109.548 175.166C109.346 174.451 109.109 173.747 108.871 173.042C108.52 172.007 108.267 170.907 107.79 169.922C107.6 169.531 108.183 169.188 108.373 169.58C108.853 170.568 109.115 171.652 109.463 172.69C109.68 173.334 109.899 173.979 110.094 174.629Z" fill="#401E18"/>
<path fill-rule="evenodd" clip-rule="evenodd" d="M112.763 173.643C112.721 173.627 112.667 174.143 112.279 174.548C111.822 172.513 111.272 170.501 110.626 168.516C110.491 168.1 111.146 167.924 111.278 168.336C111.849 170.084 112.342 171.855 112.763 173.643Z" fill="#401E18"/>
<path fill-rule="evenodd" clip-rule="evenodd" d="M114.938 171.646C114.935 171.646 114.677 172.214 114.404 172.658C114.319 171.926 114.172 171.201 114.043 170.476C113.905 169.709 113.748 168.948 113.571 168.189C113.451 167.66 113.319 167.133 113.178 166.608C113.066 166.187 113.718 166.008 113.83 166.428C114.16 167.665 114.44 168.913 114.671 170.171C114.689 170.271 114.707 170.371 114.725 170.471C114.797 170.862 114.872 171.254 114.938 171.646Z" fill="#401E18"/>
<path fill-rule="evenodd" clip-rule="evenodd" d="M140.742 232.622C140.742 242.284 140.742 251.949 140.742 261.611C140.742 264.279 140.742 266.943 140.742 269.611C140.742 270.044 141.418 270.047 141.418 269.611C141.418 259.985 141.418 250.363 141.418 240.74C141.418 238.033 141.418 235.329 141.418 232.622C141.418 232.187 140.742 232.187 140.742 232.622Z" fill="#401E18"/>
<path fill-rule="evenodd" clip-rule="evenodd" d="M124.446 232.223C124.446 242.26 124.446 252.294 124.446 262.329C124.446 264.864 124.446 267.4 124.446 269.936C124.446 270.371 125.122 270.371 125.122 269.936C125.122 260.112 125.122 250.285 125.122 240.461C125.122 237.715 125.122 234.969 125.122 232.223C125.122 231.787 124.446 231.787 124.446 232.223Z" fill="#401E18"/>
<path fill-rule="evenodd" clip-rule="evenodd" d="M145.943 209.118C145.913 209.145 145.601 209.446 145.069 209.891C143.287 211.384 139.041 214.51 134.807 214.455C129.593 214.387 122.676 211.213 121.94 209.082C121.892 208.943 121.871 208.808 121.877 208.678C121.889 208.431 121.937 208.183 122.024 207.937C122.667 206.139 125.456 204.499 132.655 204.664C141.869 204.874 144.937 206.121 145.778 208.508C145.847 208.703 145.901 208.907 145.943 209.118Z" fill="#C07D4A"/>
<path fill-rule="evenodd" clip-rule="evenodd" d="M140.946 40.6959C139.645 32.6549 138.446 23.2968 134.008 16.5549C133.839 16.298 133.596 15.9702 133.314 15.7095C133.091 15.4995 132.842 15.3333 132.586 15.281C132.355 15.233 132.118 15.2801 131.895 15.4775C131.102 16.1682 130.835 17.8016 130.594 18.8174C130.297 20.0804 130.077 21.3638 129.828 22.6386C128.845 27.6371 128.079 33.0791 127.577 38.302C126.562 48.9096 126.477 59.5995 126.751 70.2548C127.129 85.1486 127.715 100.04 128.743 114.897C129.26 122.415 129.891 129.924 130.663 137.416C130.97 140.411 131.144 143.413 131.583 146.393C131.835 148.118 132.25 149.884 132.779 151.524C133.196 152.819 133.632 153.483 134.044 153.697C134.278 153.821 134.507 153.796 134.717 153.659C135.357 153.244 135.856 151.795 135.997 150.264C136.27 147.266 136.601 144.274 136.916 141.28C137.115 139.379 137.31 137.478 137.478 135.573C137.478 135.561 137.478 135.549 137.481 135.537C137.481 135.531 137.481 135.525 137.481 135.519C138.362 125.532 139.023 115.522 139.657 105.512C140.513 91.9244 141.604 78.312 142.004 64.6878C142.004 64.6551 142.004 64.6223 142.007 64.5893C142.052 63.0817 142.085 61.5733 142.112 60.0645C142.118 59.7425 142.121 59.421 142.127 59.0989C142.214 52.935 141.929 46.7642 140.946 40.6959Z" fill="#A7B04F"/>
<path fill-rule="evenodd" clip-rule="evenodd" d="M136.069 205.969C136.081 206.405 135.405 206.404 135.393 205.969C135.387 205.782 135.384 205.594 135.378 205.406C135.05 193.795 134.744 182.184 134.449 170.572C134.305 164.948 134.17 159.323 134.044 153.697C133.752 140.735 133.512 127.771 133.356 114.806C133.169 99.4667 133.082 84.1262 132.875 68.7878C132.689 54.8331 132.199 40.8929 132.364 26.9347C132.412 23.0531 132.472 19.1662 132.586 15.281C132.842 15.3333 133.091 15.4994 133.314 15.7094C133.139 21.2151 133.022 26.722 133.001 32.2355C132.944 45.908 133.449 59.5715 133.608 73.241C133.791 89.2398 133.899 105.237 134.113 121.235C134.26 132.045 134.47 142.853 134.717 153.659C134.891 161.408 135.086 169.157 135.288 176.905C135.504 185.276 135.726 193.645 135.961 202.015C135.994 203.296 136.03 204.571 136.066 205.847C136.069 205.887 136.069 205.929 136.069 205.969Z" fill="#401E18"/>
<path fill-rule="evenodd" clip-rule="evenodd" d="M142.488 204.551C142.007 203.435 141.313 202.42 140.405 201.603C137.917 199.368 134.47 198.666 131.417 199.586C129.284 200.228 127.577 201.554 126.27 203.571C125.071 205.427 124.569 207.507 124.867 209.793C125.152 211.958 126.096 213.952 127.706 215.213C129.338 216.491 131.375 216.974 133.317 217.224C133.617 217.263 133.915 217.278 134.206 217.275C135.204 217.253 136.255 217.134 137.274 216.886C137.614 216.803 137.95 216.706 138.281 216.594C142.932 215.014 144.393 208.985 142.488 204.551Z" fill="#401E18"/>
<path fill-rule="evenodd" clip-rule="evenodd" d="M145.949 209.249C145.946 209.167 145.943 209.118 145.943 209.118C145.844 209.182 142.782 211.172 138.933 211.457C125.738 212.436 121.877 208.678 121.877 208.678C121.877 208.678 121.862 208.787 121.841 208.961C121.781 209.42 121.678 210.338 121.678 210.927V214.545C121.678 216.956 121.715 220.596 121.874 221.296C122.033 221.996 123.68 222.746 123.68 222.746C123.68 222.746 123.68 222.757 123.683 222.778C123.686 222.868 123.701 223.144 123.722 223.544C123.806 225.21 124.001 229.005 124.067 230.303C124.185 232.619 124.293 234.254 124.783 234.653C127.643 236.976 131.817 237.48 135.255 237.195C136.977 237.051 138.689 236.921 140.339 236.357C141.123 236.089 142.461 235.518 143.047 234.797C143.629 234.079 143.687 232.523 143.81 231.625C144.011 230.135 144.11 228.63 144.182 227.123C144.233 226.011 144.27 224.898 144.315 223.789C144.324 223.546 144.336 223.304 144.345 223.061C144.345 223.061 144.354 223.056 144.366 223.047C144.513 222.958 145.309 222.462 145.592 222.045C145.904 221.586 145.994 217.493 145.997 215.216C145.997 213.688 146.003 212.16 146.006 210.632C146.006 210.278 145.967 209.546 145.949 209.249Z" fill="#C07D4A"/>
<path fill-rule="evenodd" clip-rule="evenodd" d="M143.386 270.996C140.546 268.31 136.478 268.049 132.77 267.98C130.864 267.944 128.911 268.016 127.069 268.563C125.332 269.076 123.442 270.098 122.577 271.765C121.859 273.15 122.102 274.745 122.989 275.995C124.043 277.485 125.639 278.245 127.328 278.807C129.434 279.507 131.67 279.838 133.887 279.79C135.94 279.748 138.13 279.453 140.054 278.702C141.628 278.083 143.245 277.08 144.161 275.617C145.183 273.997 144.687 272.282 143.386 270.996C143.077 270.69 142.596 271.167 142.908 271.474C144.02 272.573 144.435 273.946 143.548 275.322C142.785 276.506 141.481 277.341 140.219 277.903C138.56 278.642 136.637 278.948 134.84 279.072C132.827 279.21 130.801 279.039 128.845 278.546C127.186 278.125 125.408 277.563 124.16 276.335C123.166 275.352 122.508 273.937 122.977 272.543C123.532 270.888 125.335 269.848 126.898 269.326C128.548 268.773 130.306 268.647 132.036 268.647C135.747 268.65 140.048 268.77 142.908 271.474C143.224 271.771 143.702 271.294 143.386 270.996Z" fill="#401E18"/>
<path fill-rule="evenodd" clip-rule="evenodd" d="M145.949 209.249C145.67 209.476 145.375 209.691 145.069 209.891C143.903 210.661 142.581 211.237 141.298 211.61C139.531 212.124 137.716 212.153 135.889 212.164C134.2 212.175 132.508 212.129 130.825 211.986C128.722 211.805 126.558 211.509 124.578 210.746C123.662 210.394 122.706 209.933 122.036 209.193C122.006 209.159 121.973 209.121 121.94 209.082C121.907 209.044 121.871 209.003 121.841 208.961C121.862 208.787 121.877 208.678 121.877 208.678C121.889 208.431 121.937 208.183 122.024 207.937C122.093 207.975 122.144 208.042 122.162 208.144C122.168 208.166 122.174 208.19 122.18 208.21C122.189 208.229 122.195 208.245 122.201 208.255C122.213 208.284 122.222 208.303 122.234 208.322C122.391 208.588 122.439 208.655 122.688 208.89C123.397 209.566 124.422 210.001 125.384 210.315C127.511 211.009 129.777 211.262 132.003 211.393C133.731 211.496 135.465 211.508 137.196 211.468C138.9 211.429 140.531 211.228 142.133 210.615C143.407 210.128 144.72 209.424 145.778 208.508C145.847 208.703 145.901 208.907 145.943 209.118C145.943 209.118 145.946 209.167 145.949 209.249Z" fill="#401E18"/>
<path fill-rule="evenodd" clip-rule="evenodd" d="M144.366 223.047C144.354 223.056 144.345 223.061 144.345 223.061C144.336 223.304 144.324 223.546 144.315 223.789C143.783 223.978 143.239 224.136 142.695 224.284C138.548 225.41 134.098 225.71 129.843 225.125C127.805 224.846 125.639 224.398 123.722 223.544C123.701 223.144 123.686 222.868 123.683 222.778C124.245 223.037 124.837 223.242 125.42 223.433C129.41 224.737 133.692 224.978 137.845 224.513C139.573 224.319 141.292 223.991 142.965 223.505C143.431 223.369 143.891 223.222 144.348 223.055C144.354 223.052 144.36 223.05 144.366 223.047Z" fill="#401E18"/>
<path fill-rule="evenodd" clip-rule="evenodd" d="M131.592 224.899C131.592 231.91 131.592 239.499 131.592 246.508C131.592 253.487 131.592 260.466 131.592 267.442C131.592 271.393 131.592 275.343 131.592 279.291C131.592 279.727 132.268 279.73 132.268 279.291C132.268 272.288 132.268 265.282 132.268 258.279C132.268 251.3 132.268 244.321 132.268 237.345C132.268 233.388 132.268 228.855 132.268 224.899C132.268 224.463 131.592 225.042 131.592 225.479V224.899Z" fill="#401E18"/>
<path fill-rule="evenodd" clip-rule="evenodd" d="M164.661 94.8191C164.649 94.6731 164.631 94.5436 164.61 94.4294C164.52 93.9328 164.345 93.7135 164.12 93.6804C164.078 93.6738 164.03 93.6747 163.985 93.6813C163.243 93.7907 162.119 95.5119 161.779 96.1605C157.894 103.552 154.402 111.097 151.809 119.19C149.69 125.805 148.08 132.615 146.809 139.497C145.526 146.46 144.582 153.499 143.774 160.551C143.401 163.797 143.122 167.057 143.007 170.328C142.95 171.998 142.935 173.671 142.974 175.343C142.995 176.375 142.764 178.217 143.233 178.822C143.377 179.008 143.587 179.077 143.894 178.971C144.017 178.927 144.155 178.855 144.312 178.749C145.577 177.899 146.313 175.536 146.779 174.074C148.515 168.642 149.763 162.987 151.184 157.442C154.73 143.605 158.459 129.582 161.5 115.502C162.338 111.607 163.183 107.71 163.765 103.754C164.051 101.84 164.237 99.8957 164.384 97.964C164.466 96.9239 164.739 95.8706 164.661 94.8191Z" fill="#A7B04F"/>
<path fill-rule="evenodd" clip-rule="evenodd" d="M148.945 57.629C148.882 54.984 148.657 52.3501 148.191 49.7352C148.041 48.8808 147.764 48.1453 147.419 47.7608C147.217 47.5372 146.995 47.4309 146.761 47.4892C146.418 47.5721 146.048 48.0059 145.688 48.9357C144.336 52.4285 143.542 56.158 142.854 59.8885C142.56 61.4805 142.274 63.0799 142.004 64.6878C138.431 85.7789 136.721 108.21 137.328 129.532C137.385 131.545 137.433 133.559 137.478 135.573C137.52 137.643 137.563 139.714 137.599 141.785C137.662 145.137 137.569 150.479 139.023 153.692C139.074 153.809 139.128 153.923 139.185 154.034C139.38 153.909 139.555 153.762 139.705 153.597C140.471 152.782 140.778 151.546 141.018 150.392C145.85 127.337 147.698 105.047 148.99 81.0096C149.39 73.5087 149.125 65.0901 148.945 57.629Z" fill="#A7B04F"/>
<path fill-rule="evenodd" clip-rule="evenodd" d="M129.371 153.699C128.097 149.475 126.483 145.405 124.936 141.302C123.469 137.414 122.021 133.508 120.215 129.8C118.457 126.193 116.345 122.888 113.757 119.977C112.489 118.552 111.191 117.154 109.752 115.947C109.22 115.502 105.924 113.075 105.07 113.756C104.962 113.843 104.893 113.983 104.875 114.185C104.863 114.314 104.854 114.444 104.845 114.572C104.304 122.303 107.63 129.597 110.641 136.295C113.842 143.42 117.252 150.33 121.384 156.835C123.331 159.897 125.344 162.936 127.397 165.9C128.325 167.247 129.377 168.754 130.732 169.591C130.777 169.619 130.819 169.646 130.862 169.671C131.255 169.906 131.475 169.99 131.607 169.895C131.757 169.786 131.796 169.451 131.844 168.846C131.898 168.214 131.922 167.586 131.922 166.96C131.928 162.402 130.666 157.995 129.371 153.699Z" fill="#A7B04F"/>
<path fill-rule="evenodd" clip-rule="evenodd" d="M164.61 94.4294C163.988 96.6117 163.378 98.7976 162.771 100.984C159.949 111.164 157.254 121.378 154.703 131.628C152.076 142.174 149.681 152.775 147.319 163.383C146.166 168.576 145.024 173.772 143.894 178.971C142.908 183.502 141.929 188.036 140.958 192.572C140.027 196.919 139.098 201.266 138.185 205.617C138.094 206.043 137.442 205.861 137.532 205.437C137.547 205.36 137.566 205.283 137.581 205.207C138.668 199.819 139.861 194.45 141.015 189.077C141.751 185.657 142.491 182.239 143.233 178.822C144.696 172.098 146.178 165.379 147.68 158.665C150.102 147.873 152.599 137.101 155.325 126.381C157.849 116.457 160.487 106.561 163.264 96.7054C163.549 95.6966 163.832 94.6884 164.12 93.6804C164.345 93.7135 164.52 93.9328 164.61 94.4294Z" fill="#401E18"/>
<path fill-rule="evenodd" clip-rule="evenodd" d="M147.419 47.7608C146.667 57.8029 145.913 67.8466 145.201 77.8917C144.432 88.7498 143.783 99.6166 143.025 110.476C142.286 121.05 141.445 131.619 140.607 142.187C140.303 145.99 140.003 149.793 139.708 153.595C139.191 160.229 138.692 166.861 138.239 173.498C137.511 184.166 136.916 194.842 136.487 205.527C136.475 205.773 136.252 205.881 136.066 205.847C135.922 205.821 135.802 205.714 135.808 205.527C135.856 204.357 135.91 203.19 135.961 202.021C135.964 201.904 135.97 201.788 135.976 201.672C136.43 190.96 137.079 180.257 137.836 169.562C138.212 164.271 138.611 158.981 139.023 153.692C139.423 148.554 139.831 143.416 140.24 138.276C141.081 127.676 141.911 117.073 142.623 106.463C143.353 95.5738 144.032 84.6838 144.816 73.7987C145.447 65.0273 146.106 56.2587 146.761 47.4892C146.995 47.4309 147.217 47.5372 147.419 47.7608Z" fill="#401E18"/>
<path fill-rule="evenodd" clip-rule="evenodd" d="M142.112 60.0645C142.085 61.5733 142.052 63.0817 142.007 64.5893C141.613 66.9329 141.25 69.2805 140.901 71.631C139.882 78.4994 139.077 85.4 138.476 92.3177C137.872 99.2609 137.475 106.222 137.31 113.19C137.145 120.145 137.277 127.09 137.445 134.043C137.457 134.541 137.469 135.04 137.481 135.537C137.478 135.549 137.478 135.561 137.478 135.573C137.31 137.478 137.115 139.379 136.916 141.28C136.868 138.206 136.799 135.131 136.718 132.058C136.535 125.003 136.478 117.953 136.694 110.898C136.913 103.866 137.364 96.8406 138.022 89.8358C138.677 82.9016 139.534 75.9866 140.603 69.1047C141.072 66.0863 141.553 63.0682 142.112 60.0645Z" fill="#401E18"/>
<path fill-rule="evenodd" clip-rule="evenodd" d="M134.717 200.965C134.747 201.401 134.068 201.398 134.041 200.965C133.99 200.162 133.945 199.358 133.896 198.555C133.536 192.199 133.286 185.828 132.538 179.502C132.166 176.325 131.661 173.16 130.949 170.039C130.922 169.916 130.892 169.793 130.862 169.671C130.17 166.724 129.248 163.861 128.208 161.017C126.081 155.204 123.836 149.431 121.351 143.761C118.899 138.16 116.212 132.655 113.184 127.342C110.665 122.923 107.904 118.638 104.845 114.572C104.854 114.444 104.863 114.314 104.875 114.185C104.893 113.983 104.962 113.843 105.07 113.756C108.703 118.527 111.915 123.608 114.809 128.858C117.793 134.273 120.437 139.872 122.859 145.559C125.299 151.28 127.568 157.09 129.626 162.959C130.426 165.232 131.075 167.549 131.607 169.895C132.487 173.758 133.052 177.695 133.449 181.634C134.101 188.061 134.314 194.521 134.717 200.965Z" fill="#401E18"/>
<path fill-rule="evenodd" clip-rule="evenodd" d="M198.121 231.508C198.121 231.508 198.046 227.575 185.416 227.125C172.786 226.674 171.239 231.201 171.239 231.201L179.683 239.045L191.152 238.4L198.121 231.508Z" fill="#497B9C"/>
<path fill-rule="evenodd" clip-rule="evenodd" d="M191.904 229.937C187.513 229.2 182.573 229.294 178.423 230.009C176.512 230.339 170.701 231.637 173.661 234.638C174.568 235.561 175.962 235.954 177.167 236.225C181.068 237.099 185.251 237.006 189.049 236.131C190.446 235.81 191.747 235.254 193.124 234.879C193.71 234.719 194.283 234.731 194.887 234.683C195.419 234.641 195.816 234.437 196.116 234.001C196.126 233.986 196.132 233.971 196.141 233.956C196.297 233.995 196.477 233.941 196.537 233.746C196.823 232.836 196.678 231.862 195.876 231.198C195.305 230.724 194.572 230.495 193.857 230.327C193.223 230.177 192.571 230.048 191.904 229.937Z" fill="#401E18"/>
<path fill-rule="evenodd" clip-rule="evenodd" d="M198.556 198.926C197.943 198.911 197.342 199.069 196.732 199.106C196.399 199.126 196.065 199.127 195.738 199.132C197.297 198.536 198.731 197.35 199.518 196.596C199.524 196.59 199.53 196.585 199.536 196.58C199.707 196.415 199.846 196.273 199.948 196.162C199.969 196.14 199.99 196.117 200.011 196.093C201.123 194.858 202.847 192.171 201.474 190.626C201.011 190.105 200.29 190.004 199.629 190.049C199.121 190.083 197.577 190.267 196.6 190.659C197.415 188.769 197.802 187.667 198.124 185.869C198.34 184.669 198.46 183.87 198.19 182.648C198.046 182.003 197.73 181.616 197.318 181.418C197.111 181.318 196.88 181.266 196.636 181.253C195.389 181.187 193.773 182.129 193.054 182.938C192.066 184.057 191.453 184.651 190.647 185.902C190.557 186.043 189.596 187.821 189.668 187.92C188.799 186.719 186.633 183.801 184.929 185.224C182.826 186.981 183.397 190.204 183.604 192.559C183.67 193.298 184.148 195.137 184.43 195.933C184.145 195.69 183.562 194.579 182.916 194.149C182.102 193.606 181.08 192.864 180.049 193.272C178.282 193.973 178.442 196.944 178.793 198.562C178.898 199.06 179.03 199.514 179.184 199.937C179.259 200.149 179.34 200.353 179.427 200.552C179.43 200.559 179.433 200.565 179.436 200.572C180.106 202.133 181.044 203.338 181.939 205.043C181.272 204.652 180.743 204.063 180.01 203.751C178.393 203.066 178.156 204.754 178.454 205.924C178.874 207.576 179.902 209.396 181.239 210.786C181.404 210.959 181.573 211.122 181.747 211.278C182.387 211.858 183.081 212.333 183.805 212.65C184.19 212.819 184.593 212.949 185.007 213.044C185.23 213.095 185.452 213.136 185.68 213.167C186.269 213.25 186.876 213.271 187.483 213.241C187.709 213.23 187.934 213.213 188.159 213.188C189.623 213.027 191.065 212.592 192.261 212.028C193.042 211.659 195.636 209.947 194.037 208.795C193.559 208.45 192.898 208.387 192.324 208.302C193.187 207.991 194.052 207.688 194.878 207.284C196.456 206.508 198.067 205.641 199.278 204.336C200.81 202.68 202.027 199.01 198.556 198.926Z" fill="#507054"/>
<path fill-rule="evenodd" clip-rule="evenodd" d="M215.222 204.111C214.663 204.033 214.086 203.99 213.512 203.993C214.708 203.222 215.817 202.322 216.941 201.443C217.638 200.895 218.377 200.281 218.858 199.528C219.26 198.895 219.465 198.09 219.215 197.382C219.113 197.085 218.936 196.827 218.714 196.607C218.53 196.425 218.314 196.269 218.08 196.141C217.848 196.016 217.605 195.916 217.355 195.845C215.519 195.313 213.419 195.427 211.607 195.989C210.486 196.337 209.41 196.863 208.518 197.616C208.356 196.239 207.887 194.736 206.724 194.102C205.816 193.607 204.804 193.945 203.995 194.474C202.899 195.193 201.994 196.207 201.288 197.305C200.979 197.787 200.699 198.302 200.474 198.839C200.233 198.045 199.933 197.218 199.518 196.596C198.971 195.767 198.223 195.299 197.156 195.747C196.204 196.147 195.567 197.22 195.101 198.089C194.521 199.164 194.103 200.336 193.785 201.511C193.538 202.423 193.352 203.363 193.256 204.309C193.244 204.261 193.232 204.214 193.22 204.17C193.109 203.746 193.003 203.324 192.865 202.908C192.607 202.13 192.276 200.873 191.318 200.719C190.359 200.564 189.746 201.695 189.413 202.416C188.86 203.607 188.463 204.878 188.205 206.165C187.766 208.357 187.64 210.914 188.162 213.188C188.28 213.711 188.436 214.218 188.628 214.702C189.007 215.654 189.749 216.54 190.642 217.312C190.81 217.457 190.984 217.598 191.161 217.734C192.231 218.56 193.448 219.227 194.494 219.663C196.991 220.702 199.921 221.494 202.637 221.143C203.62 221.017 204.783 220.743 205.39 219.88C205.792 219.303 205.684 218.403 205.212 217.894C205.002 217.668 203.569 216.757 203.28 216.667C203.968 216.881 204.681 217.026 205.444 217.045C207.127 217.086 210.414 217.653 211.91 216.8C213.088 216.129 214.11 214.752 213.536 213.355C213.049 212.173 211.745 211.523 210.615 211.022C211.679 210.991 212.74 210.85 213.801 210.67C215.243 210.425 216.736 210.008 217.794 208.933C218.605 208.111 219.399 206.63 218.584 205.557C217.857 204.599 216.34 204.267 215.222 204.111Z" fill="#507054"/>
<path fill-rule="evenodd" clip-rule="evenodd" d="M182.336 201.88C181.81 200.652 180.608 200.244 179.427 200.552C179.256 200.596 179.088 200.655 178.919 200.728C178.454 200.933 178.015 201.215 177.621 201.547C177.633 201.468 177.645 201.388 177.657 201.309C177.862 199.851 177.961 198.41 177.759 196.945C177.609 195.838 177.381 194.589 176.672 193.691C176.332 193.264 175.845 192.892 175.28 192.875C174.7 192.857 174.193 193.214 173.814 193.618C173.291 194.172 172.921 194.829 172.603 195.515C172.555 195.62 172.504 195.723 172.456 195.827C172.366 195.165 172.218 194.509 172.047 193.881C171.71 192.639 171.32 191.25 170.427 190.281C169.394 189.157 167.912 189.397 167.179 190.704C166.909 191.183 166.62 191.781 166.473 192.392C166.278 192.182 166.067 191.989 165.848 191.802C164.667 190.794 162.837 190.025 161.301 189.852C160.427 189.754 158.976 190.006 158.155 190.685C157.957 190.849 157.795 191.038 157.686 191.252C157.524 191.574 157.482 191.954 157.617 192.396C158.023 193.73 159.673 194.599 160.791 195.247C161.175 195.47 161.59 195.642 161.996 195.827C161.259 196.014 160.568 196.364 160.054 196.814C159.357 197.425 158.952 198.425 159.339 199.32C159.814 200.415 161.259 200.79 162.305 201.07C163.173 201.302 164.072 201.448 164.97 201.492C165.178 201.501 165.382 201.503 165.586 201.502C165.304 201.614 165.024 201.732 164.748 201.858C163.735 202.321 162.699 202.925 162.005 203.817C161.386 204.614 161.196 205.656 161.893 206.468C162.482 207.154 163.45 207.505 164.312 207.687C165.523 207.942 167.14 208.393 168.396 208.59C168.594 208.623 168.796 208.65 168.997 208.677C168.252 209.101 167.371 209.055 166.686 209.619C165.136 210.893 165.788 213.121 167.212 214.178C168.507 215.14 170.388 215.496 171.948 215.776C173.513 216.057 175.677 216.489 177.182 215.825C177.483 215.693 177.765 215.515 178.03 215.303C178.213 215.158 178.387 214.997 178.556 214.825C179.313 214.047 179.917 213.04 180.443 212.202C180.728 211.743 180.996 211.271 181.242 210.789C181.81 209.674 182.255 208.498 182.534 207.277C182.922 205.565 183.045 203.531 182.336 201.88Z" fill="#507054"/>
<path fill-rule="evenodd" clip-rule="evenodd" d="M218.713 196.607C215.24 198.035 211.703 199.365 208.425 201.205C205.456 202.872 202.61 204.843 199.921 206.935C197.288 208.986 194.74 211.343 193.027 214.238C192.357 215.37 191.75 216.551 191.161 217.734C190.966 218.125 190.774 218.517 190.581 218.906C189.809 220.475 189.193 222.133 188.799 223.839C188.364 225.727 188.162 227.665 187.979 229.591C187.847 230.967 187.36 232.568 187.892 233.905C188.051 234.311 187.396 234.485 187.24 234.085C186.933 233.319 186.969 232.46 187.054 231.652C187.147 230.745 187.276 229.84 187.366 228.933C187.576 226.832 187.82 224.71 188.403 222.673C188.893 220.955 189.599 219.319 190.425 217.736C190.497 217.595 190.569 217.454 190.641 217.312C191.399 215.833 192.111 214.323 193.042 212.944C194.951 210.127 197.589 207.838 200.29 205.808C203.121 203.682 206.072 201.655 209.212 200.009C212.064 198.513 215.093 197.356 218.076 196.142C218.314 196.269 218.53 196.425 218.713 196.607Z" fill="#401E18"/>
<path fill-rule="evenodd" clip-rule="evenodd" d="M197.318 181.418C197.042 181.91 196.79 182.416 196.516 182.912C196.026 183.809 195.522 184.698 195.026 185.592C194.001 187.443 192.949 189.278 191.991 191.164C190.323 194.436 188.766 197.771 187.709 201.294C186.657 204.802 185.954 208.447 185.734 212.105C185.713 212.459 185.695 212.814 185.68 213.167C185.611 214.677 185.584 216.188 185.509 217.697C185.413 219.607 185.197 221.507 185.022 223.41C184.845 225.349 184.749 227.293 184.704 229.236C184.683 230.171 184.674 231.105 184.698 232.04C184.716 232.86 184.704 233.677 184.475 234.473C184.397 234.746 184.091 234.764 183.919 234.626C183.832 234.554 183.781 234.437 183.823 234.293C183.829 234.272 183.832 234.254 183.838 234.236C184.106 233.256 184.01 232.253 184.004 231.249C183.998 230.165 184.028 229.077 184.064 227.993C184.142 225.821 184.319 223.665 184.529 221.504C184.713 219.586 184.845 217.67 184.908 215.744C184.938 214.844 184.965 213.943 185.007 213.044C185.052 212.08 185.112 211.118 185.215 210.158C185.584 206.606 186.378 203.053 187.516 199.671C188.679 196.211 190.305 192.894 192.003 189.669C192.886 187.986 193.839 186.338 194.761 184.675C195.218 183.852 195.69 183.036 196.129 182.204C196.297 181.887 196.462 181.569 196.636 181.253C196.88 181.266 197.111 181.318 197.318 181.418Z" fill="#401E18"/>
<path fill-rule="evenodd" clip-rule="evenodd" d="M183.373 235.308C183.174 234.311 182.931 233.319 182.757 232.316C182.594 231.385 182.522 230.444 182.408 229.507C182.165 227.503 181.771 225.53 181.161 223.602C180.641 221.953 180.001 220.345 179.355 218.743C178.898 217.602 178.472 216.451 178.03 215.303C177.853 214.838 177.669 214.372 177.483 213.91C176.194 210.724 174.247 207.826 172.411 204.937C170.536 201.987 168.579 199.031 166.238 196.422C165.127 195.182 163.898 194.024 162.464 193.158C161.007 192.276 159.408 191.701 157.768 191.282C157.738 191.274 157.711 191.265 157.686 191.252C157.795 191.038 157.957 190.849 158.155 190.685C159.94 191.156 161.689 191.822 163.237 192.845C164.796 193.877 166.127 195.221 167.326 196.645C169.622 199.367 171.587 202.355 173.48 205.363C175.307 208.264 177.191 211.162 178.39 214.391C178.444 214.536 178.499 214.681 178.556 214.825C179.755 217.995 181.173 221.105 182.098 224.37C182.594 226.111 182.895 227.897 183.108 229.69C183.219 230.627 183.297 231.562 183.475 232.49C183.586 233.073 183.715 233.653 183.838 234.236C183.865 234.365 183.895 234.494 183.919 234.626C183.956 234.794 183.992 234.96 184.025 235.128C184.109 235.555 183.457 235.735 183.373 235.308Z" fill="#401E18"/>
<path fill-rule="evenodd" clip-rule="evenodd" d="M200.011 196.093C199.99 196.117 199.969 196.14 199.948 196.162C199.846 196.273 199.707 196.415 199.536 196.58C199.233 196.128 198.839 195.758 198.313 195.633C197.321 195.398 196.429 196.104 195.852 196.834C195.227 197.628 194.806 198.583 194.44 199.517C194.022 200.579 193.71 201.676 193.487 202.797C193.418 203.143 192.931 203.091 192.835 202.797C192.607 202.095 192.339 201.14 191.603 200.802C190.978 200.513 190.416 200.918 190.025 201.396C189.118 202.511 188.673 204.121 188.334 205.492C187.94 207.068 187.763 208.695 187.814 210.318C187.841 211.275 187.937 212.249 188.159 213.188C187.934 213.213 187.709 213.23 187.483 213.241C187.291 212.392 187.192 211.521 187.15 210.652C187.003 207.691 187.576 204.585 188.899 201.924C189.337 201.041 190.125 199.973 191.227 200.022C192.162 200.063 192.712 200.759 193.079 201.544C193.331 200.576 193.652 199.631 194.046 198.707C194.509 197.618 195.08 196.488 195.993 195.704C196.79 195.022 197.916 194.656 198.911 195.131C199.365 195.349 199.722 195.69 200.011 196.093Z" fill="#401E18"/>
<path fill-rule="evenodd" clip-rule="evenodd" d="M181.747 211.278C181.573 211.122 181.404 210.959 181.242 210.789C182.27 208.757 182.982 206.484 182.853 204.204C182.79 203.114 182.555 201.717 181.663 200.978C180.996 200.427 180.196 200.37 179.436 200.572C179.433 200.565 179.43 200.559 179.427 200.552C179.34 200.353 179.259 200.149 179.184 199.937C180.016 199.699 180.897 199.718 181.693 200.179C182.811 200.828 183.243 202.107 183.433 203.317C183.862 206.047 183.006 208.852 181.747 211.278Z" fill="#401E18"/>
<path fill-rule="evenodd" clip-rule="evenodd" d="M197.415 231.24C197.373 231.255 197.331 231.273 197.288 231.303C195.588 232.478 193.592 233.031 191.564 233.295C188.367 233.713 185.088 233.767 181.864 233.755C179.259 233.743 176.642 233.464 174.208 232.487C173.498 232.202 172.777 231.889 172.116 231.505C171.713 231.27 171.314 230.567 170.92 231.189C170.86 231.285 170.83 231.409 170.86 231.55C170.866 231.583 170.875 231.616 170.887 231.649C170.89 234.957 170.932 238.27 171.176 241.572C171.416 244.814 171.584 248.097 172.143 251.303C172.486 253.268 172.834 255.554 174.469 256.9C175.8 258 177.705 258.907 179.358 259.171C184.662 260.018 189.932 260.103 194.374 256.44C196.008 255.094 196.519 253.55 196.862 251.585C197.421 248.38 197.589 245.096 197.829 241.855C198.082 238.463 198.118 235.059 198.121 231.661C198.121 231.249 197.7 231.111 197.415 231.24Z" fill="#497B9C"/>
<path fill-rule="evenodd" clip-rule="evenodd" d="M197.658 237.778C197.105 235.555 194.515 235.942 193.232 237.282C192.589 237.955 192.219 238.907 192.556 239.818C192.976 240.941 194.247 241.821 195.452 241.5C197.006 241.088 197.971 239.304 197.658 237.778C197.571 237.351 196.919 237.531 197.006 237.955C197.231 239.055 196.564 240.304 195.537 240.755C194.602 241.167 193.544 240.509 193.196 239.601C192.685 238.267 194.241 237.003 195.428 236.846C196.243 236.741 196.811 237.174 197.006 237.955C197.111 238.379 197.766 238.198 197.658 237.778Z" fill="#401E18"/>
<path fill-rule="evenodd" clip-rule="evenodd" d="M189.289 237.979C188.217 237.621 186.972 237.922 186.236 238.802C185.47 239.724 185.287 241.224 185.939 242.254C187.138 244.15 190.287 243.483 190.828 241.392C191.161 240.097 190.566 238.499 189.289 237.979C188.887 237.814 188.712 238.469 189.109 238.631C190.194 239.073 190.533 240.737 189.98 241.686C189.512 242.491 188.469 242.867 187.579 242.636C186.368 242.323 185.996 241.049 186.365 239.95C186.756 238.793 187.973 238.252 189.109 238.631C189.524 238.769 189.701 238.117 189.289 237.979Z" fill="#401E18"/>
<path fill-rule="evenodd" clip-rule="evenodd" d="M175.821 237.432C174.748 237.072 173.501 237.372 172.768 238.255C172.002 239.175 171.819 240.677 172.471 241.707C173.667 243.603 176.819 242.936 177.36 240.845C177.693 239.547 177.098 237.952 175.821 237.432C175.419 237.267 175.241 237.922 175.641 238.084C176.726 238.526 177.065 240.19 176.512 241.139C176.044 241.945 175.001 242.32 174.111 242.089C172.897 241.776 172.528 240.503 172.897 239.403C173.285 238.246 174.505 237.703 175.641 238.084C176.056 238.222 176.233 237.567 175.821 237.432Z" fill="#401E18"/>
<path fill-rule="evenodd" clip-rule="evenodd" d="M183.775 239.481C182.688 237.255 179.202 237.874 178.589 240.154C177.949 242.534 180.713 244.414 182.736 243.062C183.917 242.272 184.322 240.767 183.775 239.481C183.604 239.082 183.021 239.424 183.189 239.821C183.67 240.95 183.051 242.341 181.885 242.735C180.827 243.092 179.635 242.552 179.277 241.482C178.517 239.181 182.114 237.618 183.189 239.821C183.382 240.211 183.965 239.869 183.775 239.481Z" fill="#401E18"/>
<path fill-rule="evenodd" clip-rule="evenodd" d="M183.919 230.099C183.787 228.08 181.909 225.08 181.389 224.324C181.158 223.986 180.891 223.683 180.59 223.417C180.386 223.235 180.166 223.069 179.935 222.921C179.322 222.532 178.628 222.269 177.898 222.144C175.551 221.742 172.666 222.273 170.617 223.488C170.154 223.763 169.703 224.154 169.574 224.7C169.442 225.259 169.733 225.851 170.178 226.186C170.623 226.526 171.173 226.576 171.707 226.658C172.008 226.704 172.308 226.747 172.609 226.781C171.491 227.121 170.415 227.674 169.37 228.143C168.147 228.693 166.539 229.408 165.821 230.621C164.985 232.03 166.665 232.73 167.789 232.902C168.79 233.055 169.787 233.046 170.782 232.962C169.899 233.364 168.988 233.713 168.159 234.23C167.29 234.77 166.26 235.443 165.848 236.426C165.659 236.882 165.647 237.411 165.944 237.826C166.245 238.237 166.758 238.364 167.239 238.409C167.702 238.454 168.168 238.4 168.633 238.388C169.15 238.376 169.667 238.36 170.181 238.345C169.703 239.063 169.328 239.854 169.075 240.677C168.703 241.894 168.567 243.387 169.186 244.552C169.412 244.973 169.73 245.249 170.085 245.388C170.301 245.472 170.533 245.502 170.761 245.481C170.863 245.472 170.965 245.451 171.067 245.421C171.885 245.267 172.9 244.252 173.312 243.819C173.91 243.188 174.28 242.461 174.604 241.653C174.682 241.458 174.763 241.263 174.848 241.07C175.377 241.845 175.992 242.542 176.846 242.855C177.666 243.155 178.502 242.771 178.994 242.083C179.689 241.109 179.265 239.83 179.006 238.778C178.817 238.003 178.679 237.21 178.354 236.474C178.354 236.471 178.351 236.468 178.351 236.465C178.655 236.768 178.976 237.057 179.334 237.318C179.815 237.67 180.404 237.94 181.011 237.781C181.495 237.651 181.879 237.306 182.038 236.834C182.345 235.933 181.957 234.924 181.708 234.052C181.498 233.319 181.287 232.586 180.981 231.883C180.927 231.757 180.866 231.634 180.806 231.511C181.398 231.883 182.068 232.103 182.769 231.934C183.688 231.712 183.98 231.006 183.919 230.099Z" fill="#507054"/>
<path fill-rule="evenodd" clip-rule="evenodd" d="M180.59 223.417C179.46 223.725 178.652 224.753 178.051 225.748C177.288 227.011 176.669 228.374 176.044 229.708C175.247 231.394 174.505 233.103 173.823 234.836C173.144 236.57 172.528 238.327 171.984 240.106C171.461 241.83 170.752 243.657 170.761 245.481C170.533 245.502 170.301 245.472 170.085 245.388C170.091 244.321 170.346 243.288 170.644 242.269C170.947 241.224 171.248 240.178 171.578 239.142C172.777 235.362 174.313 231.691 176.053 228.128C176.918 226.351 177.979 223.761 179.935 222.921C180.166 223.069 180.386 223.235 180.59 223.417Z" fill="#401E18"/>
<path fill-rule="evenodd" clip-rule="evenodd" d="M80.0212 124.907C79.8319 124.927 80.5921 132.823 80.6883 133.56C81.1991 137.396 82.2869 141.292 84.3843 144.64C86.5809 148.147 89.4326 151.179 92.0018 154.406C95.0128 158.186 100.166 161.896 103.315 165.562C104.427 166.856 105.758 170.905 106.365 170.988C107.784 171.182 116.053 166.664 115.086 163.565C114.118 160.473 98.4684 137.904 97.9456 137.181C96.969 135.826 96.5032 123.103 96.5032 123.103C96.5032 123.103 80.0242 124.906 80.0212 124.907Z" fill="#D66B4B"/>
<path fill-rule="evenodd" clip-rule="evenodd" d="M99.1025 126.583C99.0033 125.734 98.9162 124.299 98.823 123.709C98.5856 122.213 98.3512 120.717 98.18 119.213C97.9155 116.922 97.7953 114.614 97.4077 112.338C97.0621 110.302 96.4611 108.277 95.6708 106.368C95.1931 105.216 94.5951 104.139 93.8468 103.166C93.6605 102.923 93.4622 102.687 93.2549 102.457C91.7164 100.295 88.9128 100.295 86.632 100.98C86.3165 101.081 86.013 101.202 85.7185 101.337C85.4962 101.439 85.2768 101.547 85.0665 101.662C82.7256 103.291 81.1811 105.803 80.0572 108.456C79.9611 108.787 79.8709 109.121 79.7898 109.456C79.2159 111.802 78.9935 114.193 79.0897 116.043C79.3992 121.984 79.0476 125.399 79.4713 130.569C79.4893 130.785 79.5103 131.007 79.6065 131.201C79.8229 131.634 80.2766 131.544 80.6733 131.608C81.109 131.679 81.5206 131.765 81.9684 131.783C85.2227 131.916 87.3171 131.815 90.5324 131.23C92.0229 130.959 94.3907 130.34 96.3229 129.675C97.5339 129.258 98.5736 129.067 99.1175 128.172C99.3519 127.79 99.1716 127.17 99.1025 126.583Z" fill="#FFDCBF"/>
</svg>
