<svg width="32" height="32" viewBox="0 0 32 32" fill="none" xmlns="http://www.w3.org/2000/svg">
<rect width="32" height="32" rx="9.48148" fill="#FFF1CC"/>
<path d="M15.4932 19.7436C15.9913 19.7436 16.4599 19.6485 16.8991 19.4583C17.3428 19.2682 17.7322 19.0055 18.0672 18.6705C18.4023 18.3354 18.6649 17.9483 18.855 17.5091C19.0452 17.0654 19.1403 16.5945 19.1403 16.0965C19.1403 15.5939 19.0452 15.123 18.855 14.6839C18.6649 14.2401 18.4023 13.8508 18.0672 13.5157C17.7322 13.1807 17.3428 12.9181 16.8991 12.7279C16.4599 12.5377 15.9913 12.4426 15.4932 12.4426C14.9906 12.4426 14.5198 12.5377 14.0806 12.7279C13.6459 12.9181 13.2588 13.1807 12.9192 13.5157C12.5842 13.8508 12.3216 14.2401 12.1314 14.6839C11.9412 15.123 11.8461 15.5939 11.8461 16.0965C11.8461 16.5945 11.9412 17.0654 12.1314 17.5091C12.3216 17.9483 12.5842 18.3354 12.9192 18.6705C13.2588 19.0055 13.6459 19.2682 14.0806 19.4583C14.5198 19.6485 14.9906 19.7436 15.4932 19.7436ZM15.4932 18.3173C15.0902 18.3173 14.719 18.2177 14.3794 18.0185C14.0443 17.8148 13.7749 17.5454 13.5712 17.2103C13.372 16.8707 13.2724 16.4995 13.2724 16.0965C13.2724 15.6935 13.372 15.3245 13.5712 14.9895C13.7749 14.6499 14.0443 14.3782 14.3794 14.1745C14.719 13.9707 15.0902 13.8689 15.4932 13.8689C15.9007 13.8689 16.272 13.9707 16.607 14.1745C16.9421 14.3782 17.2092 14.6499 17.4084 14.9895C17.6122 15.3245 17.714 15.6935 17.714 16.0965C17.714 16.4995 17.6122 16.8707 17.4084 17.2103C17.2092 17.5454 16.9421 17.8148 16.607 18.0185C16.272 18.2177 15.9007 18.3173 15.4932 18.3173ZM16.2471 9.12837C16.2471 8.92463 16.1724 8.74805 16.0229 8.59863C15.8735 8.44922 15.697 8.37451 15.4932 8.37451C15.294 8.37451 15.1197 8.44922 14.9703 8.59863C14.8208 8.74805 14.7461 8.92463 14.7461 9.12837V10.4731C14.7461 10.6768 14.8208 10.8534 14.9703 11.0028C15.1197 11.1523 15.294 11.227 15.4932 11.227C15.697 11.227 15.8735 11.1523 16.0229 11.0028C16.1724 10.8534 16.2471 10.6768 16.2471 10.4731V9.12837ZM18.9297 11.6141C18.7894 11.7544 18.7192 11.931 18.7192 12.1438C18.7237 12.3521 18.7962 12.5287 18.9365 12.6736C19.0814 12.8139 19.258 12.8841 19.4663 12.8841C19.6745 12.8841 19.8511 12.8117 19.996 12.6668L20.9536 11.7024C21.094 11.562 21.1642 11.3877 21.1642 11.1794C21.1642 10.9666 21.0917 10.7878 20.9468 10.6429C20.8065 10.5025 20.6321 10.4346 20.4239 10.4391C20.2156 10.4391 20.039 10.5093 19.8941 10.6497L18.9297 11.6141ZM22.4613 16.8436C22.6651 16.8436 22.8394 16.7689 22.9843 16.6195C23.1337 16.47 23.2084 16.2957 23.2084 16.0965C23.2084 15.8928 23.1337 15.7184 22.9843 15.5736C22.8394 15.4241 22.6651 15.3494 22.4613 15.3494H21.1098C20.9106 15.3494 20.7363 15.4241 20.5869 15.5736C20.4375 15.7184 20.3627 15.8928 20.3627 16.0965C20.3627 16.2957 20.4375 16.47 20.5869 16.6195C20.7363 16.7689 20.9106 16.8436 21.1098 16.8436H22.4613ZM19.9892 19.5262C19.8489 19.3859 19.6723 19.318 19.4595 19.3225C19.2512 19.3225 19.0746 19.3927 18.9297 19.533C18.7894 19.6779 18.7192 19.8545 18.7192 20.0628C18.7237 20.2665 18.7962 20.4431 18.9365 20.5925L19.9077 21.5501C20.0481 21.6905 20.2224 21.7584 20.4307 21.7539C20.6389 21.7539 20.8155 21.6837 20.9604 21.5433C21.1008 21.3984 21.1687 21.2219 21.1642 21.0136C21.1642 20.8053 21.094 20.6287 20.9536 20.4838L19.9892 19.5262ZM16.2471 21.7131C16.2471 21.5094 16.1724 21.3328 16.0229 21.1834C15.8735 21.0385 15.697 20.966 15.4932 20.966C15.294 20.966 15.1197 21.0385 14.9703 21.1834C14.8208 21.3328 14.7461 21.5094 14.7461 21.7131V23.0646C14.7461 23.2684 14.8208 23.445 14.9703 23.5944C15.1197 23.7438 15.294 23.8185 15.4932 23.8185C15.697 23.8185 15.8735 23.7438 16.0229 23.5944C16.1724 23.445 16.2471 23.2684 16.2471 23.0646V21.7131ZM10.0396 20.4838C9.89471 20.6242 9.82 20.7985 9.81547 21.0068C9.81547 21.2151 9.88565 21.3916 10.026 21.5365C10.1709 21.6769 10.3475 21.7493 10.5558 21.7539C10.7686 21.7584 10.9451 21.6905 11.0855 21.5501L12.0499 20.5925C12.1903 20.4476 12.2604 20.271 12.2604 20.0628C12.265 19.8545 12.197 19.6779 12.0567 19.533C11.9163 19.3927 11.7397 19.3225 11.5269 19.3225C11.3141 19.318 11.1376 19.3859 10.9972 19.5262L10.0396 20.4838ZM8.53187 15.3494C8.33265 15.3494 8.15834 15.4241 8.00892 15.5736C7.85951 15.7184 7.7848 15.8928 7.7848 16.0965C7.7848 16.2957 7.85951 16.47 8.00892 16.6195C8.15834 16.7689 8.33265 16.8436 8.53187 16.8436H9.8766C10.0803 16.8436 10.2569 16.7689 10.4063 16.6195C10.5558 16.47 10.6305 16.2957 10.6305 16.0965C10.6305 15.8928 10.5558 15.7184 10.4063 15.5736C10.2569 15.4241 10.0803 15.3494 9.8766 15.3494H8.53187ZM10.9904 12.6668C11.1353 12.8071 11.3119 12.8796 11.5202 12.8841C11.7284 12.8841 11.905 12.8139 12.0499 12.6736C12.1903 12.5332 12.2604 12.3566 12.2604 12.1438C12.265 11.9265 12.197 11.7499 12.0567 11.6141L11.0991 10.6497C10.9632 10.5093 10.7889 10.4391 10.5761 10.4391C10.3679 10.4346 10.1913 10.5025 10.0464 10.6429C9.9015 10.7878 9.82906 10.9666 9.82906 11.1794C9.82906 11.3877 9.89697 11.562 10.0328 11.7024L10.9904 12.6668Z" fill="#E8A800"/>
</svg>
