<svg width="20" height="22" viewBox="0 0 20 22" fill="none" xmlns="http://www.w3.org/2000/svg">
<path d="M10.2109 1.19277L10.2113 1.19242L10.2035 1.18609C9.95368 0.981655 9.59299 1.02925 9.39219 1.27467L9.3918 1.27516C9.08187 1.65888 8.7016 2.10121 8.27756 2.59444C8.16802 2.72185 8.05556 2.85267 7.94064 2.98675L7.93424 2.99416C6.70684 4.41683 5.23868 6.11855 4.077 7.8774C2.91502 9.63671 2.04856 11.4692 2.04856 13.1485C2.04856 15.2997 2.91676 17.2436 4.3319 18.6588L4.33238 18.6592C5.74691 20.0549 7.6904 20.9421 9.84216 20.9421C11.9934 20.9421 13.9373 20.0739 15.3524 18.6588C16.7676 17.2436 17.6358 15.2997 17.6358 13.1485C17.6358 11.4692 16.7693 9.63671 15.6073 7.8774C14.4456 6.11855 12.9775 4.41683 11.7501 2.99416L11.7437 2.98675C11.7436 2.98669 11.7436 2.98664 11.7435 2.98658C11.6287 2.85257 11.5163 2.72181 11.4068 2.59445C10.9853 2.10422 10.6071 1.66426 10.2982 1.28216C10.2806 1.25174 10.258 1.23071 10.2415 1.21693C10.2343 1.2109 10.2266 1.20505 10.2214 1.20102C10.2202 1.20012 10.2191 1.19932 10.2182 1.19862C10.2131 1.19463 10.2113 1.19306 10.2109 1.19277ZM8.81875 3.73195L8.81965 3.73089C8.96695 3.55553 9.11214 3.38484 9.2539 3.21818C9.45844 2.97772 9.65585 2.74565 9.84216 2.52003C10.1582 2.9026 10.5046 3.30075 10.866 3.71379L10.8956 3.74803C12.073 5.11085 13.4656 6.72278 14.5677 8.3609C15.6815 10.0164 16.4857 11.6808 16.4857 13.1299C16.4857 14.9645 15.7337 16.6163 14.5401 17.8284C13.3282 19.0401 11.6767 19.7921 9.84216 19.7921C8.00751 19.7921 6.35576 19.04 5.14367 17.8464C3.95091 16.6535 3.19862 14.9836 3.19862 13.1485C3.19862 11.7088 4.00282 10.0444 5.11667 8.38647C6.2281 6.73207 7.63513 5.10196 8.81875 3.73195Z" fill="#2F80ED" stroke="#2F80ED" stroke-width="0.2"/>
<path d="M6.21268 16.9815L6.2134 16.9822C7.12583 17.8946 8.43644 18.4832 9.87942 18.4832C10.1955 18.4832 10.4451 18.2335 10.4451 17.9174C10.4451 17.6014 10.1955 17.3517 9.87942 17.3517C8.75175 17.3517 7.73376 16.8971 7.00682 16.1702C6.27988 15.4432 5.82525 14.4252 5.82525 13.2975C5.82525 12.9815 5.57557 12.7318 5.25954 12.7318C4.94351 12.7318 4.69382 12.9815 4.69382 13.2975C4.69382 14.7413 5.28291 16.0327 6.21269 16.9815L6.21268 16.9815Z" fill="#2F80ED" stroke="#2F80ED" stroke-width="0.2"/>
</svg>
