<svg width="50" height="50" viewBox="0 0 50 50" fill="none" xmlns="http://www.w3.org/2000/svg">
<circle opacity="0.8" cx="25" cy="25" r="25" fill="white"/>
<path d="M25.211 15.1928L25.2113 15.1924L25.2036 15.1861C24.9537 14.9817 24.593 15.0293 24.3922 15.2747L24.3918 15.2752C24.0819 15.6589 23.7016 16.1012 23.2776 16.5944C23.1681 16.7219 23.0556 16.8527 22.9407 16.9867L22.9343 16.9942C21.7069 18.4168 20.2387 20.1186 19.077 21.8774C17.915 23.6367 17.0486 25.4692 17.0486 27.1485C17.0486 29.2997 17.9168 31.2436 19.3319 32.6588L19.3324 32.6592C20.7469 34.0549 22.6904 34.9421 24.8422 34.9421C26.9934 34.9421 28.9373 34.0739 30.3524 32.6588C31.7676 31.2436 32.6358 29.2997 32.6358 27.1485C32.6358 25.4692 31.7693 23.6367 30.6074 21.8774C29.4457 20.1186 27.9775 18.4168 26.7501 16.9942L26.7437 16.9867C26.7437 16.9867 26.7436 16.9866 26.7436 16.9866C26.6287 16.8526 26.5163 16.7218 26.4068 16.5945C25.9853 16.1042 25.6071 15.6643 25.2982 15.2822C25.2806 15.2517 25.2581 15.2307 25.2415 15.2169C25.2343 15.2109 25.2267 15.205 25.2214 15.201C25.2202 15.2001 25.2192 15.1993 25.2183 15.1986C25.2131 15.1946 25.2113 15.1931 25.211 15.1928ZM23.8188 17.7319L23.8197 17.7309C23.967 17.5555 24.1122 17.3848 24.2539 17.2182C24.4585 16.9777 24.6559 16.7456 24.8422 16.52C25.1582 16.9026 25.5046 17.3008 25.866 17.7138L25.8956 17.748C27.073 19.1109 28.4657 20.7228 29.5677 22.3609C30.6815 24.0164 31.4857 25.6808 31.4857 27.1299C31.4857 28.9645 30.7337 30.6163 29.5401 31.8284C28.3282 33.0401 26.6767 33.7921 24.8422 33.7921C23.0075 33.7921 21.3558 33.04 20.1437 31.8464C18.9509 30.6535 18.1986 28.9836 18.1986 27.1485C18.1986 25.7088 19.0029 24.0444 20.1167 22.3865C21.2281 20.7321 22.6352 19.102 23.8188 17.7319Z" fill="#2F80ED" stroke="#2F80ED" stroke-width="0.2"/>
<path d="M21.2127 30.9815L21.2134 30.9822C22.1259 31.8946 23.4365 32.4831 24.8795 32.4831C25.1955 32.4831 25.4452 32.2335 25.4452 31.9174C25.4452 31.6014 25.1955 31.3517 24.8795 31.3517C23.7518 31.3517 22.7338 30.8971 22.0069 30.1701C21.2799 29.4432 20.8253 28.4252 20.8253 27.2975C20.8253 26.9815 20.5756 26.7318 20.2596 26.7318C19.9435 26.7318 19.6939 26.9815 19.6939 27.2975C19.6939 28.7413 20.2829 30.0327 21.2127 30.9815L21.2127 30.9815Z" fill="#2F80ED" stroke="#2F80ED" stroke-width="0.2"/>
</svg>
