<svg width="22" height="22" viewBox="0 0 22 22" fill="none" xmlns="http://www.w3.org/2000/svg">
<path d="M11.5488 15.374C12.1934 15.374 12.7998 15.251 13.3682 15.0049C13.9424 14.7588 14.4463 14.4189 14.8799 13.9854C15.3135 13.5518 15.6533 13.0508 15.8994 12.4824C16.1455 11.9082 16.2686 11.2988 16.2686 10.6543C16.2686 10.0039 16.1455 9.39453 15.8994 8.82617C15.6533 8.25195 15.3135 7.74805 14.8799 7.31445C14.4463 6.88086 13.9424 6.54102 13.3682 6.29492C12.7998 6.04883 12.1934 5.92578 11.5488 5.92578C10.8984 5.92578 10.2891 6.04883 9.7207 6.29492C9.1582 6.54102 8.65723 6.88086 8.21777 7.31445C7.78418 7.74805 7.44434 8.25195 7.19824 8.82617C6.95215 9.39453 6.8291 10.0039 6.8291 10.6543C6.8291 11.2988 6.95215 11.9082 7.19824 12.4824C7.44434 13.0508 7.78418 13.5518 8.21777 13.9854C8.65723 14.4189 9.1582 14.7588 9.7207 15.0049C10.2891 15.251 10.8984 15.374 11.5488 15.374ZM11.5488 13.5283C11.0273 13.5283 10.5469 13.3994 10.1074 13.1416C9.67383 12.8779 9.3252 12.5293 9.06152 12.0957C8.80371 11.6562 8.6748 11.1758 8.6748 10.6543C8.6748 10.1328 8.80371 9.65527 9.06152 9.22168C9.3252 8.78223 9.67383 8.43066 10.1074 8.16699C10.5469 7.90332 11.0273 7.77148 11.5488 7.77148C12.0762 7.77148 12.5566 7.90332 12.9902 8.16699C13.4238 8.43066 13.7695 8.78223 14.0273 9.22168C14.291 9.65527 14.4229 10.1328 14.4229 10.6543C14.4229 11.1758 14.291 11.6562 14.0273 12.0957C13.7695 12.5293 13.4238 12.8779 12.9902 13.1416C12.5566 13.3994 12.0762 13.5283 11.5488 13.5283ZM12.5244 1.63672C12.5244 1.37305 12.4277 1.14453 12.2344 0.951172C12.041 0.757812 11.8125 0.661133 11.5488 0.661133C11.291 0.661133 11.0654 0.757812 10.8721 0.951172C10.6787 1.14453 10.582 1.37305 10.582 1.63672V3.37695C10.582 3.64062 10.6787 3.86914 10.8721 4.0625C11.0654 4.25586 11.291 4.35254 11.5488 4.35254C11.8125 4.35254 12.041 4.25586 12.2344 4.0625C12.4277 3.86914 12.5244 3.64062 12.5244 3.37695V1.63672ZM15.9961 4.85352C15.8145 5.03516 15.7236 5.26367 15.7236 5.53906C15.7295 5.80859 15.8232 6.03711 16.0049 6.22461C16.1924 6.40625 16.4209 6.49707 16.6904 6.49707C16.96 6.49707 17.1885 6.40332 17.376 6.21582L18.6152 4.96777C18.7969 4.78613 18.8877 4.56055 18.8877 4.29102C18.8877 4.01563 18.7939 3.78418 18.6064 3.59668C18.4248 3.41504 18.1992 3.32715 17.9297 3.33301C17.6602 3.33301 17.4316 3.42383 17.2441 3.60547L15.9961 4.85352ZM20.5664 11.6211C20.8301 11.6211 21.0557 11.5244 21.2432 11.3311C21.4365 11.1377 21.5332 10.9121 21.5332 10.6543C21.5332 10.3906 21.4365 10.165 21.2432 9.97754C21.0557 9.78418 20.8301 9.6875 20.5664 9.6875H18.8174C18.5596 9.6875 18.334 9.78418 18.1406 9.97754C17.9473 10.165 17.8506 10.3906 17.8506 10.6543C17.8506 10.9121 17.9473 11.1377 18.1406 11.3311C18.334 11.5244 18.5596 11.6211 18.8174 11.6211H20.5664ZM17.3672 15.0928C17.1855 14.9111 16.957 14.8232 16.6816 14.8291C16.4121 14.8291 16.1836 14.9199 15.9961 15.1016C15.8145 15.2891 15.7236 15.5176 15.7236 15.7871C15.7295 16.0508 15.8232 16.2793 16.0049 16.4727L17.2617 17.7119C17.4434 17.8936 17.6689 17.9814 17.9385 17.9756C18.208 17.9756 18.4365 17.8848 18.624 17.7031C18.8057 17.5156 18.8936 17.2871 18.8877 17.0176C18.8877 16.748 18.7969 16.5195 18.6152 16.332L17.3672 15.0928ZM12.5244 17.9229C12.5244 17.6592 12.4277 17.4307 12.2344 17.2373C12.041 17.0498 11.8125 16.9561 11.5488 16.9561C11.291 16.9561 11.0654 17.0498 10.8721 17.2373C10.6787 17.4307 10.582 17.6592 10.582 17.9229V19.6719C10.582 19.9355 10.6787 20.1641 10.8721 20.3574C11.0654 20.5508 11.291 20.6475 11.5488 20.6475C11.8125 20.6475 12.041 20.5508 12.2344 20.3574C12.4277 20.1641 12.5244 19.9355 12.5244 19.6719V17.9229ZM4.49121 16.332C4.30371 16.5137 4.20703 16.7393 4.20117 17.0088C4.20117 17.2783 4.29199 17.5068 4.47363 17.6943C4.66113 17.876 4.88965 17.9697 5.15918 17.9756C5.43457 17.9814 5.66309 17.8936 5.84473 17.7119L7.09277 16.4727C7.27441 16.2852 7.36523 16.0566 7.36523 15.7871C7.37109 15.5176 7.2832 15.2891 7.10156 15.1016C6.91992 14.9199 6.69141 14.8291 6.41602 14.8291C6.14062 14.8232 5.91211 14.9111 5.73047 15.0928L4.49121 16.332ZM2.54004 9.6875C2.28223 9.6875 2.05664 9.78418 1.86328 9.97754C1.66992 10.165 1.57324 10.3906 1.57324 10.6543C1.57324 10.9121 1.66992 11.1377 1.86328 11.3311C2.05664 11.5244 2.28223 11.6211 2.54004 11.6211H4.28027C4.54395 11.6211 4.77246 11.5244 4.96582 11.3311C5.15918 11.1377 5.25586 10.9121 5.25586 10.6543C5.25586 10.3906 5.15918 10.165 4.96582 9.97754C4.77246 9.78418 4.54395 9.6875 4.28027 9.6875H2.54004ZM5.72168 6.21582C5.90918 6.39746 6.1377 6.49121 6.40723 6.49707C6.67676 6.49707 6.90527 6.40625 7.09277 6.22461C7.27441 6.04297 7.36523 5.81445 7.36523 5.53906C7.37109 5.25781 7.2832 5.0293 7.10156 4.85352L5.8623 3.60547C5.68652 3.42383 5.46094 3.33301 5.18555 3.33301C4.91602 3.32715 4.6875 3.41504 4.5 3.59668C4.3125 3.78418 4.21875 4.01563 4.21875 4.29102C4.21875 4.56055 4.30664 4.78613 4.48242 4.96777L5.72168 6.21582Z" fill="#E8A800"/>
</svg>
