<svg width="21" height="21" viewBox="0 0 21 21" fill="none" xmlns="http://www.w3.org/2000/svg">
<path d="M10.5488 15.374C11.1934 15.374 11.7998 15.251 12.3682 15.0049C12.9424 14.7588 13.4463 14.4189 13.8799 13.9854C14.3135 13.5518 14.6533 13.0508 14.8994 12.4824C15.1455 11.9082 15.2686 11.2988 15.2686 10.6543C15.2686 10.0039 15.1455 9.39453 14.8994 8.82617C14.6533 8.25195 14.3135 7.74805 13.8799 7.31445C13.4463 6.88086 12.9424 6.54102 12.3682 6.29492C11.7998 6.04883 11.1934 5.92578 10.5488 5.92578C9.89844 5.92578 9.28906 6.04883 8.7207 6.29492C8.1582 6.54102 7.65723 6.88086 7.21777 7.31445C6.78418 7.74805 6.44434 8.25195 6.19824 8.82617C5.95215 9.39453 5.8291 10.0039 5.8291 10.6543C5.8291 11.2988 5.95215 11.9082 6.19824 12.4824C6.44434 13.0508 6.78418 13.5518 7.21777 13.9854C7.65723 14.4189 8.1582 14.7588 8.7207 15.0049C9.28906 15.251 9.89844 15.374 10.5488 15.374ZM10.5488 13.5283C10.0273 13.5283 9.54688 13.3994 9.10742 13.1416C8.67383 12.8779 8.3252 12.5293 8.06152 12.0957C7.80371 11.6562 7.6748 11.1758 7.6748 10.6543C7.6748 10.1328 7.80371 9.65527 8.06152 9.22168C8.3252 8.78223 8.67383 8.43066 9.10742 8.16699C9.54688 7.90332 10.0273 7.77148 10.5488 7.77148C11.0762 7.77148 11.5566 7.90332 11.9902 8.16699C12.4238 8.43066 12.7695 8.78223 13.0273 9.22168C13.291 9.65527 13.4229 10.1328 13.4229 10.6543C13.4229 11.1758 13.291 11.6562 13.0273 12.0957C12.7695 12.5293 12.4238 12.8779 11.9902 13.1416C11.5566 13.3994 11.0762 13.5283 10.5488 13.5283ZM11.5244 1.63672C11.5244 1.37305 11.4277 1.14453 11.2344 0.951172C11.041 0.757812 10.8125 0.661133 10.5488 0.661133C10.291 0.661133 10.0654 0.757812 9.87207 0.951172C9.67871 1.14453 9.58203 1.37305 9.58203 1.63672V3.37695C9.58203 3.64062 9.67871 3.86914 9.87207 4.0625C10.0654 4.25586 10.291 4.35254 10.5488 4.35254C10.8125 4.35254 11.041 4.25586 11.2344 4.0625C11.4277 3.86914 11.5244 3.64062 11.5244 3.37695V1.63672ZM14.9961 4.85352C14.8145 5.03516 14.7236 5.26367 14.7236 5.53906C14.7295 5.80859 14.8232 6.03711 15.0049 6.22461C15.1924 6.40625 15.4209 6.49707 15.6904 6.49707C15.96 6.49707 16.1885 6.40332 16.376 6.21582L17.6152 4.96777C17.7969 4.78613 17.8877 4.56055 17.8877 4.29102C17.8877 4.01563 17.7939 3.78418 17.6064 3.59668C17.4248 3.41504 17.1992 3.32715 16.9297 3.33301C16.6602 3.33301 16.4316 3.42383 16.2441 3.60547L14.9961 4.85352ZM19.5664 11.6211C19.8301 11.6211 20.0557 11.5244 20.2432 11.3311C20.4365 11.1377 20.5332 10.9121 20.5332 10.6543C20.5332 10.3906 20.4365 10.165 20.2432 9.97754C20.0557 9.78418 19.8301 9.6875 19.5664 9.6875H17.8174C17.5596 9.6875 17.334 9.78418 17.1406 9.97754C16.9473 10.165 16.8506 10.3906 16.8506 10.6543C16.8506 10.9121 16.9473 11.1377 17.1406 11.3311C17.334 11.5244 17.5596 11.6211 17.8174 11.6211H19.5664ZM16.3672 15.0928C16.1855 14.9111 15.957 14.8232 15.6816 14.8291C15.4121 14.8291 15.1836 14.9199 14.9961 15.1016C14.8145 15.2891 14.7236 15.5176 14.7236 15.7871C14.7295 16.0508 14.8232 16.2793 15.0049 16.4727L16.2617 17.7119C16.4434 17.8936 16.6689 17.9814 16.9385 17.9756C17.208 17.9756 17.4365 17.8848 17.624 17.7031C17.8057 17.5156 17.8936 17.2871 17.8877 17.0176C17.8877 16.748 17.7969 16.5195 17.6152 16.332L16.3672 15.0928ZM11.5244 17.9229C11.5244 17.6592 11.4277 17.4307 11.2344 17.2373C11.041 17.0498 10.8125 16.9561 10.5488 16.9561C10.291 16.9561 10.0654 17.0498 9.87207 17.2373C9.67871 17.4307 9.58203 17.6592 9.58203 17.9229V19.6719C9.58203 19.9355 9.67871 20.1641 9.87207 20.3574C10.0654 20.5508 10.291 20.6475 10.5488 20.6475C10.8125 20.6475 11.041 20.5508 11.2344 20.3574C11.4277 20.1641 11.5244 19.9355 11.5244 19.6719V17.9229ZM3.49121 16.332C3.30371 16.5137 3.20703 16.7393 3.20117 17.0088C3.20117 17.2783 3.29199 17.5068 3.47363 17.6943C3.66113 17.876 3.88965 17.9697 4.15918 17.9756C4.43457 17.9814 4.66309 17.8936 4.84473 17.7119L6.09277 16.4727C6.27441 16.2852 6.36523 16.0566 6.36523 15.7871C6.37109 15.5176 6.2832 15.2891 6.10156 15.1016C5.91992 14.9199 5.69141 14.8291 5.41602 14.8291C5.14062 14.8232 4.91211 14.9111 4.73047 15.0928L3.49121 16.332ZM1.54004 9.6875C1.28223 9.6875 1.05664 9.78418 0.863281 9.97754C0.669922 10.165 0.573242 10.3906 0.573242 10.6543C0.573242 10.9121 0.669922 11.1377 0.863281 11.3311C1.05664 11.5244 1.28223 11.6211 1.54004 11.6211H3.28027C3.54395 11.6211 3.77246 11.5244 3.96582 11.3311C4.15918 11.1377 4.25586 10.9121 4.25586 10.6543C4.25586 10.3906 4.15918 10.165 3.96582 9.97754C3.77246 9.78418 3.54395 9.6875 3.28027 9.6875H1.54004ZM4.72168 6.21582C4.90918 6.39746 5.1377 6.49121 5.40723 6.49707C5.67676 6.49707 5.90527 6.40625 6.09277 6.22461C6.27441 6.04297 6.36523 5.81445 6.36523 5.53906C6.37109 5.25781 6.2832 5.0293 6.10156 4.85352L4.8623 3.60547C4.68652 3.42383 4.46094 3.33301 4.18555 3.33301C3.91602 3.32715 3.6875 3.41504 3.5 3.59668C3.3125 3.78418 3.21875 4.01563 3.21875 4.29102C3.21875 4.56055 3.30664 4.78613 3.48242 4.96777L4.72168 6.21582Z" fill="#E8A800"/>
</svg>
