<svg width="23" height="21" viewBox="0 0 23 21" fill="none" xmlns="http://www.w3.org/2000/svg">
<path d="M4.1123 20.1484H18.7861C19.9105 20.1484 20.752 19.8691 21.3105 19.3105C21.8691 18.7591 22.1484 17.9284 22.1484 16.8184V3.70215C22.1484 2.59212 21.8691 1.76139 21.3105 1.20996C20.752 0.651367 19.9105 0.37207 18.7861 0.37207H4.1123C2.98796 0.37207 2.1429 0.651367 1.57715 1.20996C1.01855 1.76139 0.739258 2.59212 0.739258 3.70215V16.8184C0.739258 17.9284 1.01855 18.7591 1.57715 19.3105C2.1429 19.8691 2.98796 20.1484 4.1123 20.1484ZM3.95117 18.4189C3.47852 18.4189 3.11328 18.29 2.85547 18.0322C2.59766 17.7816 2.46875 17.4092 2.46875 16.915V6.78516C2.46875 6.29102 2.59766 5.91862 2.85547 5.66797C3.11328 5.41016 3.47852 5.28125 3.95117 5.28125H18.9258C19.4056 5.28125 19.7744 5.41016 20.0322 5.66797C20.29 5.91862 20.4189 6.29102 20.4189 6.78516V16.915C20.4189 17.4092 20.29 17.7816 20.0322 18.0322C19.7744 18.29 19.4056 18.4189 18.9258 18.4189H3.95117ZM9.35449 9.14844H9.98828C10.1745 9.14844 10.3034 9.11263 10.375 9.04102C10.4538 8.9694 10.4932 8.84049 10.4932 8.6543V8.02051C10.4932 7.83431 10.4538 7.70898 10.375 7.64453C10.3034 7.57292 10.1745 7.53711 9.98828 7.53711H9.35449C9.16829 7.53711 9.03581 7.57292 8.95703 7.64453C8.88542 7.70898 8.84961 7.83431 8.84961 8.02051V8.6543C8.84961 8.84049 8.88542 8.9694 8.95703 9.04102C9.03581 9.11263 9.16829 9.14844 9.35449 9.14844ZM12.9209 9.14844H13.5547C13.748 9.14844 13.8805 9.11263 13.9521 9.04102C14.0238 8.9694 14.0596 8.84049 14.0596 8.6543V8.02051C14.0596 7.83431 14.0238 7.70898 13.9521 7.64453C13.8805 7.57292 13.748 7.53711 13.5547 7.53711H12.9209C12.7347 7.53711 12.6058 7.57292 12.5342 7.64453C12.4626 7.70898 12.4268 7.83431 12.4268 8.02051V8.6543C12.4268 8.84049 12.4626 8.9694 12.5342 9.04102C12.6058 9.11263 12.7347 9.14844 12.9209 9.14844ZM16.498 9.14844H17.1211C17.3145 9.14844 17.4469 9.11263 17.5186 9.04102C17.5902 8.9694 17.626 8.84049 17.626 8.6543V8.02051C17.626 7.83431 17.5902 7.70898 17.5186 7.64453C17.4469 7.57292 17.3145 7.53711 17.1211 7.53711H16.498C16.3047 7.53711 16.1722 7.57292 16.1006 7.64453C16.029 7.70898 15.9932 7.83431 15.9932 8.02051V8.6543C15.9932 8.84049 16.029 8.9694 16.1006 9.04102C16.1722 9.11263 16.3047 9.14844 16.498 9.14844ZM5.78809 12.6611H6.42188C6.60807 12.6611 6.73698 12.6253 6.80859 12.5537C6.88021 12.4821 6.91602 12.3532 6.91602 12.167V11.5439C6.91602 11.3506 6.88021 11.2217 6.80859 11.1572C6.73698 11.0856 6.60807 11.0498 6.42188 11.0498H5.78809C5.59473 11.0498 5.46224 11.0856 5.39062 11.1572C5.31901 11.2217 5.2832 11.3506 5.2832 11.5439V12.167C5.2832 12.3532 5.31901 12.4821 5.39062 12.5537C5.46224 12.6253 5.59473 12.6611 5.78809 12.6611ZM9.35449 12.6611H9.98828C10.1745 12.6611 10.3034 12.6253 10.375 12.5537C10.4538 12.4821 10.4932 12.3532 10.4932 12.167V11.5439C10.4932 11.3506 10.4538 11.2217 10.375 11.1572C10.3034 11.0856 10.1745 11.0498 9.98828 11.0498H9.35449C9.16829 11.0498 9.03581 11.0856 8.95703 11.1572C8.88542 11.2217 8.84961 11.3506 8.84961 11.5439V12.167C8.84961 12.3532 8.88542 12.4821 8.95703 12.5537C9.03581 12.6253 9.16829 12.6611 9.35449 12.6611ZM12.9209 12.6611H13.5547C13.748 12.6611 13.8805 12.6253 13.9521 12.5537C14.0238 12.4821 14.0596 12.3532 14.0596 12.167V11.5439C14.0596 11.3506 14.0238 11.2217 13.9521 11.1572C13.8805 11.0856 13.748 11.0498 13.5547 11.0498H12.9209C12.7347 11.0498 12.6058 11.0856 12.5342 11.1572C12.4626 11.2217 12.4268 11.3506 12.4268 11.5439V12.167C12.4268 12.3532 12.4626 12.4821 12.5342 12.5537C12.6058 12.6253 12.7347 12.6611 12.9209 12.6611ZM16.498 12.6611H17.1211C17.3145 12.6611 17.4469 12.6253 17.5186 12.5537C17.5902 12.4821 17.626 12.3532 17.626 12.167V11.5439C17.626 11.3506 17.5902 11.2217 17.5186 11.1572C17.4469 11.0856 17.3145 11.0498 17.1211 11.0498H16.498C16.3047 11.0498 16.1722 11.0856 16.1006 11.1572C16.029 11.2217 15.9932 11.3506 15.9932 11.5439V12.167C15.9932 12.3532 16.029 12.4821 16.1006 12.5537C16.1722 12.6253 16.3047 12.6611 16.498 12.6611ZM5.78809 16.1738H6.42188C6.60807 16.1738 6.73698 16.1416 6.80859 16.0771C6.88021 16.0055 6.91602 15.873 6.91602 15.6797V15.0566C6.91602 14.8633 6.88021 14.7344 6.80859 14.6699C6.73698 14.5983 6.60807 14.5625 6.42188 14.5625H5.78809C5.59473 14.5625 5.46224 14.5983 5.39062 14.6699C5.31901 14.7344 5.2832 14.8633 5.2832 15.0566V15.6797C5.2832 15.873 5.31901 16.0055 5.39062 16.0771C5.46224 16.1416 5.59473 16.1738 5.78809 16.1738ZM9.35449 16.1738H9.98828C10.1745 16.1738 10.3034 16.1416 10.375 16.0771C10.4538 16.0055 10.4932 15.873 10.4932 15.6797V15.0566C10.4932 14.8633 10.4538 14.7344 10.375 14.6699C10.3034 14.5983 10.1745 14.5625 9.98828 14.5625H9.35449C9.16829 14.5625 9.03581 14.5983 8.95703 14.6699C8.88542 14.7344 8.84961 14.8633 8.84961 15.0566V15.6797C8.84961 15.873 8.88542 16.0055 8.95703 16.0771C9.03581 16.1416 9.16829 16.1738 9.35449 16.1738ZM12.9209 16.1738H13.5547C13.748 16.1738 13.8805 16.1416 13.9521 16.0771C14.0238 16.0055 14.0596 15.873 14.0596 15.6797V15.0566C14.0596 14.8633 14.0238 14.7344 13.9521 14.6699C13.8805 14.5983 13.748 14.5625 13.5547 14.5625H12.9209C12.7347 14.5625 12.6058 14.5983 12.5342 14.6699C12.4626 14.7344 12.4268 14.8633 12.4268 15.0566V15.6797C12.4268 15.873 12.4626 16.0055 12.5342 16.0771C12.6058 16.1416 12.7347 16.1738 12.9209 16.1738Z" fill="#D1D1D6"/>
</svg>
